<?xml version="1.0" encoding="utf-8"?>
<!-- Generator: Adobe Illustrator 16.0.0, SVG Export Plug-In . SVG Version: 6.00 Build 0)  -->
<!DOCTYPE svg PUBLIC "-//W3C//DTD SVG 1.1//EN" "http://www.w3.org/Graphics/SVG/1.1/DTD/svg11.dtd">
<svg version="1.1" id="Layer_1" xmlns="http://www.w3.org/2000/svg" xmlns:xlink="http://www.w3.org/1999/xlink" x="0px" y="0px"
	 width="30px" height="21px" viewBox="0 0 30 21" enable-background="new 0 0 30 21" xml:space="preserve">
<path fill="#878785" d="M20.979,17.832l-5.359-5.359c0.722-1.19,1.146-2.584,1.146-4.078c0-4.356-3.526-7.885-7.883-7.886
	C4.529,0.509,1,4.038,1,8.395c0,4.352,3.53,7.881,7.885,7.881c1.494,0,2.886-0.424,4.076-1.145l5.362,5.361L20.979,17.832z
	 M4.008,8.395C4.013,5.7,6.191,3.521,8.884,3.517c2.691,0.007,4.873,2.183,4.876,4.878c-0.006,2.69-2.185,4.871-4.876,4.875
	C6.19,13.266,4.012,11.085,4.008,8.395z"/>
</svg>
