<?xml version="1.0" encoding="utf-8"?>
<!-- Generator: Adobe Illustrator 14.0.0, SVG Export Plug-In  -->
<!DOCTYPE svg PUBLIC "-//W3C//DTD SVG 1.1//EN" "http://www.w3.org/Graphics/SVG/1.1/DTD/svg11.dtd" [
	<!ENTITY ns_flows "http://ns.adobe.com/Flows/1.0/">
]>
<svg version="1.1"
	 xmlns="http://www.w3.org/2000/svg" xmlns:xlink="http://www.w3.org/1999/xlink" xmlns:a="http://ns.adobe.com/AdobeSVGViewerExtensions/3.0/"
	 x="0px" y="0px" width="32px" height="32px" viewBox="-0.755 -1 32 32" enable-background="new -0.755 -1 32 32"
	 xml:space="preserve">
<defs>
</defs>
<path d="M30.245,1.416v1.333c0,0.945-0.474,1.416-1.416,1.416H1.416C0.471,4.165,0,3.694,0,2.749V1.416C0,0.472,0.471,0,1.416,0
	h27.414C29.771,0,30.245,0.472,30.245,1.416z M0,11.245V9.912c0-1,0.471-1.5,1.416-1.5h19.492c0.389,0,0.722,0.154,0.998,0.458
	c0.279,0.306,0.417,0.654,0.417,1.042v1.333c0,0.389-0.138,0.722-0.417,1c-0.276,0.279-0.609,0.417-0.998,0.417H1.416
	C0.471,12.661,0,12.19,0,11.245z M0,19.741v-1.334c0-0.943,0.471-1.415,1.416-1.415h25.577c0.388,0,0.722,0.139,0.998,0.416
	c0.278,0.279,0.417,0.612,0.417,0.999v1.334c0,0.388-0.139,0.722-0.417,0.999c-0.276,0.278-0.61,0.417-0.998,0.417H1.416
	C0.471,21.157,0,20.686,0,19.741z M24.571,26.904v1.333c0,0.945-0.474,1.416-1.416,1.416H1.416C0.471,29.653,0,29.183,0,28.237
	v-1.333c0-0.944,0.471-1.416,1.416-1.416h21.74C24.098,25.488,24.571,25.96,24.571,26.904z"/>
</svg>
