<?xml version="1.0" encoding="utf-8"?>
<!-- Generator: Adobe Illustrator 14.0.0, SVG Export Plug-In  -->
<!DOCTYPE svg PUBLIC "-//W3C//DTD SVG 1.1//EN" "http://www.w3.org/Graphics/SVG/1.1/DTD/svg11.dtd" [
	<!ENTITY ns_flows "http://ns.adobe.com/Flows/1.0/">
]>
<svg version="1.1"
	 xmlns="http://www.w3.org/2000/svg" xmlns:xlink="http://www.w3.org/1999/xlink" xmlns:a="http://ns.adobe.com/AdobeSVGViewerExtensions/3.0/"
	 x="0px" y="0px" width="32px" height="32px" viewBox="-0.433 -0.464 32 32" enable-background="new -0.433 -0.464 32 32"
	 xml:space="preserve">
<defs>
</defs>
<path d="M26.304,0.03L4.832,0C2.182-0.003,0.034,2.142,0.03,4.789L0,26.263c-0.008,2.649,2.14,4.799,4.788,4.803l21.472,0.03
	c2.653,0.004,4.8-2.142,4.804-4.79l0.029-21.474C31.101,2.185,28.954,0.034,26.304,0.03z M23.857,11.276v0.557
	c0,1.271-0.171,2.415-0.51,3.438c-0.341,1.176-0.854,2.275-1.532,3.297c-0.591,0.958-1.396,1.903-2.418,2.832
	c-1.021,0.836-2.165,1.472-3.433,1.903c-1.299,0.496-2.727,0.744-4.273,0.744c-2.385,0-4.584-0.651-6.595-1.951
	c0.429,0.062,0.772,0.093,1.02,0.093c1.952,0,3.73-0.619,5.342-1.858c-0.928,0-1.765-0.278-2.509-0.834
	c-0.743-0.559-1.252-1.271-1.53-2.137c0.434,0.062,0.71,0.093,0.835,0.093c0.398,0,0.773-0.064,1.114-0.186
	c-0.959-0.187-1.778-0.667-2.462-1.44c-0.649-0.807-0.974-1.72-0.974-2.739V13.04c0.618,0.342,1.268,0.511,1.952,0.511
	c-0.589-0.372-1.058-0.866-1.396-1.486c-0.341-0.586-0.513-1.269-0.513-2.044c0-0.804,0.185-1.533,0.558-2.181
	c1.085,1.33,2.386,2.384,3.901,3.157c1.578,0.807,3.233,1.253,4.971,1.347c-0.092-0.373-0.141-0.712-0.141-1.023
	c0-1.176,0.419-2.182,1.254-3.017c0.837-0.837,1.857-1.254,3.065-1.254c1.236,0,2.276,0.449,3.113,1.345
	c0.954-0.185,1.872-0.524,2.741-1.02c-0.312,1.02-0.948,1.811-1.906,2.368c0.743-0.093,1.562-0.307,2.462-0.649
	C25.345,9.992,24.632,10.717,23.857,11.276z"/>
</svg>
