<?xml version="1.0" encoding="utf-8"?>
<!-- Generator: Adobe Illustrator 14.0.0, SVG Export Plug-In  -->
<!DOCTYPE svg PUBLIC "-//W3C//DTD SVG 1.1//EN" "http://www.w3.org/Graphics/SVG/1.1/DTD/svg11.dtd" [
	<!ENTITY ns_flows "http://ns.adobe.com/Flows/1.0/">
]>
<svg version="1.1"
	 xmlns="http://www.w3.org/2000/svg" xmlns:xlink="http://www.w3.org/1999/xlink" xmlns:a="http://ns.adobe.com/AdobeSVGViewerExtensions/3.0/"
	 x="0px" y="0px" width="32px" height="32px" viewBox="-0.479 -0.49 32 32" enable-background="new -0.479 -0.49 32 32"
	 xml:space="preserve">
<defs>
</defs>
<path d="M31.043,5.812v19.42c0,1.605-0.567,2.977-1.701,4.111c-1.134,1.134-2.505,1.701-4.111,1.701H5.812
	c-1.605,0-2.977-0.567-4.111-1.701C0.567,28.208,0,26.837,0,25.231V5.812c0-1.604,0.567-2.977,1.701-4.111
	C2.835,0.567,4.206,0,5.812,0h19.42c1.605,0,2.977,0.567,4.111,1.701C30.476,2.835,31.043,4.207,31.043,5.812z M22.68,25.94v-3.686
	c-1.087,0.756-2.245,1.133-3.473,1.133c-0.708,0-1.299-0.164-1.772-0.495c-0.424-0.237-0.708-0.543-0.85-0.921
	c-0.143-0.33-0.213-1.181-0.213-2.552v-6.024h5.6V9.781h-5.6V3.827h-3.332c-0.142,1.372-0.401,2.364-0.78,2.977
	c-0.472,0.851-0.992,1.535-1.56,2.055c-0.66,0.472-1.44,0.898-2.338,1.275v3.26h2.551v8.221c0,1.136,0.118,1.939,0.354,2.41
	c0.237,0.567,0.638,1.111,1.205,1.63c0.521,0.426,1.205,0.805,2.056,1.134c0.85,0.284,1.796,0.426,2.835,0.426
	c0.614,0,1.488-0.095,2.622-0.283C20.695,26.745,21.593,26.413,22.68,25.94z"/>
</svg>
