<?xml version="1.0" encoding="utf-8"?>
<!-- Generator: Adobe Illustrator 14.0.0, SVG Export Plug-In  -->
<!DOCTYPE svg PUBLIC "-//W3C//DTD SVG 1.1//EN" "http://www.w3.org/Graphics/SVG/1.1/DTD/svg11.dtd" [
	<!ENTITY ns_flows "http://ns.adobe.com/Flows/1.0/">
]>
<svg version="1.1"
	 xmlns="http://www.w3.org/2000/svg" xmlns:xlink="http://www.w3.org/1999/xlink" xmlns:a="http://ns.adobe.com/AdobeSVGViewerExtensions/3.0/"
	 x="0px" y="0px" width="32px" height="32px" viewBox="-0.453 -0.474 32 32" enable-background="new -0.453 -0.474 32 32"
	 xml:space="preserve">
<defs>
</defs>
<path d="M25.237,0c1.607,0,2.978,0.567,4.112,1.702s1.701,2.506,1.701,4.112v19.425c0,1.607-0.566,2.977-1.701,4.112
	c-1.135,1.134-2.505,1.702-4.112,1.702H10.562c1.087-1.56,1.82-2.978,2.197-4.254c0.143-0.378,0.496-1.772,1.064-4.183
	c0.33,0.567,0.827,1.017,1.488,1.347c0.756,0.378,1.513,0.567,2.268,0.567c2.459,0,4.468-0.993,6.026-2.979
	c1.513-2.031,2.27-4.56,2.27-7.585c0-1.181-0.237-2.268-0.71-3.261c-0.425-1.039-1.063-1.985-1.914-2.835
	c-0.804-0.804-1.843-1.464-3.118-1.985c-1.135-0.471-2.459-0.709-3.971-0.709s-2.836,0.189-3.971,0.567
	c-1.182,0.331-2.196,0.851-3.048,1.56C8.151,8.011,7.42,8.745,6.947,9.5c-0.614,0.804-1.063,1.677-1.347,2.623
	c-0.285,0.851-0.426,1.726-0.426,2.623c0,1.466,0.261,2.694,0.779,3.687c0.568,1.04,1.348,1.772,2.34,2.198
	c0.189,0.047,0.354,0.047,0.495,0c0.144-0.046,0.237-0.166,0.285-0.355L9.357,19c0.142-0.284,0.07-0.567-0.213-0.851
	c-0.661-0.804-0.993-1.796-0.993-2.978c0-2.032,0.71-3.781,2.127-5.246c1.324-1.418,3.144-2.126,5.46-2.126
	c1.937,0,3.497,0.543,4.678,1.63c1.135,1.04,1.701,2.458,1.701,4.253c0,2.269-0.449,4.207-1.346,5.813
	c-0.945,1.56-2.128,2.34-3.545,2.34c-0.756,0-1.394-0.284-1.914-0.851c-0.52-0.613-0.686-1.322-0.497-2.127
	c0-0.045,0.071-0.294,0.213-0.744c0.143-0.45,0.26-0.815,0.355-1.099c0.047-0.142,0.142-0.461,0.282-0.957
	c0.143-0.496,0.237-0.862,0.284-1.099c0.142-0.566,0.213-1.063,0.213-1.489c0-0.755-0.165-1.322-0.497-1.701
	c-0.378-0.425-0.897-0.638-1.559-0.638c-0.804,0-1.513,0.378-2.128,1.133c-0.566,0.757-0.85,1.702-0.85,2.836
	c0,0.804,0.166,1.63,0.496,2.481l-1.985,8.365c-0.283,1.418-0.33,3.12-0.142,5.105H5.812c-1.607,0-2.978-0.567-4.112-1.702
	C0.566,28.215,0,26.845,0,25.238V5.813c0-1.606,0.566-2.978,1.7-4.112C2.835,0.567,4.205,0,5.812,0H25.237z"/>
</svg>
