<?xml version="1.0" encoding="utf-8"?>
<!-- Generator: Adobe Illustrator 18.1.0, SVG Export Plug-In . SVG Version: 6.00 Build 0)  -->
<svg version="1.1" id="Layer_1" xmlns="http://www.w3.org/2000/svg" xmlns:xlink="http://www.w3.org/1999/xlink" x="0px" y="0px"
	 viewBox="0 0 32 32" enable-background="new 0 0 32 32" xml:space="preserve">
<g>
	<path fill="#FFFFFF" d="M15.991,1.188c8.123,0,14.732,6.609,14.732,14.733c0,8.123-6.609,14.732-14.732,14.732
		S1.259,24.045,1.259,15.921C1.259,7.797,7.868,1.188,15.991,1.188 M15.991,0.251c-8.654,0-15.67,7.016-15.67,15.67
		c0,8.654,7.016,15.67,15.67,15.67c8.654,0,15.67-7.016,15.67-15.67C31.661,7.267,24.645,0.251,15.991,0.251L15.991,0.251z"/>
	<path fill="#BDB9B9" d="M15.991,1.188 M15.991,1.188c8.123,0,14.732,6.609,14.732,14.733h0.937c0-8.655-7.016-15.67-15.67-15.67
		l0,0"/>
</g>
<polygon fill="#FFFFFF" points="13.352,20.884 13.352,10.803 20.553,15.843 "/>
</svg>
