<?xml version="1.0" encoding="utf-8"?>
<!-- Generator: Adobe Illustrator 15.0.0, SVG Export Plug-In . SVG Version: 6.00 Build 0)  -->
<!DOCTYPE svg PUBLIC "-//W3C//DTD SVG 1.1//EN" "http://www.w3.org/Graphics/SVG/1.1/DTD/svg11.dtd">
<svg version="1.1" id="Layer_1" xmlns="http://www.w3.org/2000/svg" xmlns:xlink="http://www.w3.org/1999/xlink" x="0px" y="0px"
	 width="32px" height="32px" viewBox="16 16 32 32" enable-background="new 16 16 32 32" xml:space="preserve">
<g>
	<path d="M20.559,28.558c0-0.954,0.432-1.638,1.296-2.056c0.328-0.148,0.656-0.224,0.984-0.224h2.77
		c0.418-0.03,0.716-0.254,0.894-0.67l0.67-2.1c0.178-0.418,0.492-0.64,0.938-0.67h7.776c0.477,0.03,0.79,0.254,0.938,0.67l0.67,2.1
		c0.209,0.418,0.508,0.64,0.896,0.67h2.771c0.955,0,1.64,0.432,2.058,1.296c0.147,0.328,0.226,0.656,0.226,0.984v10.323
		c0,0.955-0.434,1.639-1.297,2.057c-0.328,0.148-0.656,0.225-0.984,0.225H22.837c-0.894,0-1.564-0.418-2.012-1.252
		c-0.178-0.357-0.268-0.699-0.268-1.027V28.558H20.559z M32.001,38.879c1.579-0.029,2.934-0.596,4.065-1.697
		c1.103-1.133,1.653-2.475,1.653-4.021c-0.028-1.608-0.582-2.964-1.653-4.066c-1.133-1.102-2.488-1.654-4.065-1.654
		c-1.61,0.03-2.964,0.582-4.066,1.654c-1.102,1.132-1.654,2.488-1.654,4.066c0.03,1.58,0.582,2.92,1.654,4.021
		C29.095,38.314,30.451,38.879,32.001,38.879z M28.559,33.16c0-1.311,0.582-2.311,1.742-2.995c0.536-0.298,1.102-0.446,1.698-0.446
		c1.37,0,2.384,0.596,3.038,1.788c0.268,0.536,0.402,1.088,0.402,1.655c0,1.311-0.582,2.293-1.744,2.949
		c-0.537,0.299-1.104,0.447-1.699,0.447c-1.339,0-2.337-0.582-2.993-1.744C28.707,34.277,28.559,33.727,28.559,33.16z
		 M40.357,30.166c0.387,0,0.639-0.208,0.76-0.626c0.029-0.06,0.043-0.12,0.043-0.178c0-0.388-0.207-0.64-0.625-0.76
		c-0.061-0.03-0.121-0.044-0.178-0.044c-0.537,0-0.805,0.268-0.805,0.804C39.643,29.808,39.91,30.076,40.357,30.166z"/>
</g>
</svg>
