<?xml version="1.0" encoding="utf-8"?>
<!-- Generator: Adobe Illustrator 15.0.0, SVG Export Plug-In . SVG Version: 6.00 Build 0)  -->
<!DOCTYPE svg PUBLIC "-//W3C//DTD SVG 1.1//EN" "http://www.w3.org/Graphics/SVG/1.1/DTD/svg11.dtd">
<svg version="1.1" id="Layer_1" xmlns="http://www.w3.org/2000/svg" xmlns:xlink="http://www.w3.org/1999/xlink" x="0px" y="0px"
	 width="32px" height="32px" viewBox="17.5 15.5 32 32" enable-background="new 17.5 15.5 32 32" xml:space="preserve">
<path d="M42.735,33.045c1.146,0,1.916,0.606,2.31,1.818c0.099,0.328,0.147,0.672,0.147,1.032c0,1.31-0.508,2.146-1.521,2.506
	c-0.294,0.099-0.574,0.147-0.836,0.147c-0.556,0-1.244-0.313-2.064-0.935c-0.262-0.164-0.473-0.294-0.637-0.394
	c-0.328-0.164-0.673-0.246-1.033-0.246c-0.98,0.064-1.488,0.638-1.522,1.72c0,0.229,0.074,0.771,0.224,1.622
	c0.146,0.854,0.219,1.393,0.219,1.622v0.099c-0.491,0-1.293,0.065-2.407,0.195c-1.114,0.132-1.933,0.195-2.456,0.195
	c-1.311-0.065-1.981-0.573-2.014-1.521c0.032-0.59,0.294-1.18,0.785-1.768c0.492-0.622,0.754-1.264,0.787-1.916
	c0-1.146-0.574-1.885-1.721-2.211c-0.328-0.098-0.638-0.147-0.934-0.147c-1.342,0-2.229,0.492-2.654,1.476
	c-0.132,0.293-0.196,0.604-0.196,0.934c0,0.786,0.23,1.475,0.688,2.064c0.426,0.656,0.656,1.146,0.688,1.474
	c-0.031,0.458-0.245,0.868-0.638,1.228c-0.359,0.328-0.918,0.492-1.67,0.492c-0.656,0-2.112-0.164-4.372-0.492h-0.05h-0.05V27.644
	c0.098,0.031,0.328,0.082,0.688,0.147c0.196,0.032,0.313,0.05,0.345,0.05c1.342,0.23,2.489,0.345,3.438,0.345
	c0.786-0.032,1.342-0.196,1.67-0.492c0.426-0.395,0.638-0.818,0.638-1.278c0-0.294-0.212-0.754-0.638-1.376l-0.05-0.05
	c-0.458-0.59-0.688-1.294-0.688-2.112c0-1.244,0.673-2.014,2.015-2.31c0.262-0.066,0.54-0.099,0.836-0.099
	c1.31,0,2.146,0.509,2.506,1.522c0.098,0.294,0.146,0.574,0.146,0.836c0,0.556-0.313,1.244-0.934,2.064
	c-0.164,0.262-0.294,0.474-0.394,0.638c-0.164,0.328-0.246,0.656-0.246,0.981c0.195,0.95,0.868,1.475,2.014,1.572
	c0.358,0,1.376-0.082,3.046-0.246c0.949-0.132,1.54-0.195,1.77-0.195c-0.033,0.065-0.066,0.277-0.1,0.638
	c-0.032,0.196-0.05,0.328-0.05,0.394c-0.229,1.343-0.345,2.49-0.345,3.438c0.031,0.786,0.195,1.342,0.492,1.672
	c0.393,0.426,0.817,0.639,1.277,0.639c0.294,0,0.754-0.213,1.376-0.639l0.05-0.05C41.293,33.273,41.981,33.045,42.735,33.045z"/>
</svg>
