<?xml version="1.0" encoding="utf-8"?>
<!-- Generator: Adobe Illustrator 15.0.0, SVG Export Plug-In . SVG Version: 6.00 Build 0)  -->
<!DOCTYPE svg PUBLIC "-//W3C//DTD SVG 1.1//EN" "http://www.w3.org/Graphics/SVG/1.1/DTD/svg11.dtd">
<svg version="1.1" id="Layer_1" xmlns="http://www.w3.org/2000/svg" xmlns:xlink="http://www.w3.org/1999/xlink" x="0px" y="0px"
	 width="32px" height="32px" viewBox="16 16 32 32" enable-background="new 16 16 32 32" xml:space="preserve">
<g>
	<path d="M41.98,23.149v0.88c0,0.624-0.312,0.934-0.934,0.934H22.953c-0.624,0-0.934-0.31-0.934-0.934v-0.88
		c0-0.624,0.31-0.934,0.934-0.934h18.094C41.667,22.213,41.98,22.525,41.98,23.149z M22.02,29.635v-0.88
		c0-0.66,0.31-0.99,0.934-0.99h12.863c0.256,0,0.478,0.102,0.658,0.302c0.184,0.202,0.276,0.432,0.276,0.688v0.88
		c0,0.256-0.091,0.476-0.276,0.66c-0.182,0.184-0.402,0.276-0.658,0.276H22.953C22.329,30.571,22.02,30.259,22.02,29.635z
		 M22.02,35.244v-0.881c0-0.621,0.31-0.934,0.934-0.934h16.88c0.256,0,0.476,0.092,0.657,0.273c0.185,0.185,0.277,0.403,0.277,0.659
		v0.882c0,0.256-0.094,0.476-0.277,0.658c-0.183,0.186-0.401,0.276-0.657,0.276h-16.88C22.329,36.178,22.02,35.867,22.02,35.244z
		 M38.234,39.972v0.88c0,0.624-0.312,0.934-0.934,0.934H22.953c-0.624,0-0.934-0.31-0.934-0.934v-0.88
		c0-0.624,0.31-0.935,0.934-0.935h14.348C37.923,39.037,38.234,39.348,38.234,39.972z"/>
</g>
</svg>
