<?xml version="1.0" encoding="utf-8"?>
<!-- Generator: Adobe Illustrator 14.0.0, SVG Export Plug-In  -->
<!DOCTYPE svg PUBLIC "-//W3C//DTD SVG 1.1//EN" "http://www.w3.org/Graphics/SVG/1.1/DTD/svg11.dtd" [
	<!ENTITY ns_flows "http://ns.adobe.com/Flows/1.0/">
]>
<svg version="1.1"
	 xmlns="http://www.w3.org/2000/svg" xmlns:xlink="http://www.w3.org/1999/xlink" xmlns:a="http://ns.adobe.com/AdobeSVGViewerExtensions/3.0/"
	 x="0px" y="0px" width="32px" height="32px" viewBox="-0.737 -6.59 32 32" enable-background="new -0.737 -6.59 32 32"
	 xml:space="preserve">
<defs>
</defs>
<path fill="#231F20" d="M15.224,18.058c-0.001,0-0.001,0-0.002,0c-4.623,0-8.971-1.801-12.239-5.069
	c-0.967-0.969-1.821-2.056-2.54-3.233L0,9.029l0.442-0.725C1.16,7.128,2.014,6.04,2.982,5.07C6.252,1.8,10.601,0,15.223,0
	c4.623,0,8.971,1.8,12.239,5.069c0.971,0.971,1.826,2.06,2.542,3.235l0.442,0.726l-0.442,0.726
	c-0.719,1.178-1.574,2.266-2.542,3.232C24.193,16.257,19.846,18.058,15.224,18.058L15.224,18.058z M3.294,9.029
	c0.495,0.712,1.051,1.379,1.66,1.99c2.742,2.742,6.389,4.252,10.269,4.252h0.001c3.879,0,7.525-1.51,10.268-4.254
	c0.609-0.609,1.167-1.276,1.661-1.988c-0.493-0.711-1.051-1.378-1.661-1.988c-2.742-2.743-6.389-4.254-10.269-4.254
	c-3.879,0-7.525,1.511-10.269,4.254C4.345,7.651,3.788,8.317,3.294,9.029L3.294,9.029z"/>
<path fill="#231F20" d="M15.088,15.335c-3.438,0-6.266-2.799-6.302-6.237c-0.02-1.684,0.618-3.275,1.796-4.479
	c1.178-1.204,2.754-1.877,4.438-1.896h0.072c3.438,0,6.265,2.797,6.303,6.236c0.018,1.684-0.62,3.276-1.798,4.479
	c-1.179,1.205-2.755,1.878-4.438,1.896H15.088L15.088,15.335z M15.093,5.046h-0.047c-1.063,0.012-2.06,0.437-2.803,1.197
	c-0.744,0.76-1.148,1.765-1.136,2.828c0.024,2.174,1.81,3.939,3.98,3.939h0.045c1.063-0.01,2.06-0.437,2.804-1.195
	c0.744-0.761,1.148-1.766,1.136-2.83C19.048,6.814,17.263,5.046,15.093,5.046L15.093,5.046z"/>
</svg>
