<?xml version="1.0" encoding="utf-8"?>
<!-- Generator: Adobe Illustrator 18.1.1, SVG Export Plug-In . SVG Version: 6.00 Build 0)  -->
<svg version="1.1" id="Layer_1" xmlns="http://www.w3.org/2000/svg" xmlns:xlink="http://www.w3.org/1999/xlink" x="0px" y="0px"
	 viewBox="0 0 32 32" enable-background="new 0 0 32 32" xml:space="preserve">
<path d="M13.802,21.083c-0.621,2.94-1.222,5.176-1.801,6.708c-0.704,1.739-1.739,3.106-3.106,4.099c-0.248-2.94-0.248-5.093,0-6.46
	c0.041-0.29,0.083-0.58,0.124-0.87c0.414-2.029,0.932-4.182,1.553-6.46c0.373-1.491,0.621-2.526,0.745-3.106
	c-0.497-1.118-0.683-2.36-0.559-3.727c0.124-1.698,0.787-2.94,1.988-3.727c0.828-0.497,1.718-0.58,2.671-0.248
	c1.532,0.621,1.863,2.257,0.994,4.907c-0.621,1.822-0.973,2.899-1.056,3.23c-0.29,1.118-0.331,2.07-0.124,2.857
	c0.331,0.828,1.014,1.346,2.05,1.553c2.236,0.455,4.016-0.642,5.342-3.292c0.373-0.663,0.642-1.346,0.807-2.05
	c0.455-1.656,0.58-3.395,0.373-5.217c-0.207-1.698-0.787-3.043-1.739-4.037c-1.325-1.366-2.919-2.112-4.783-2.236
	c-3.727-0.29-6.625,1.139-8.696,4.286C8.461,7.501,8.357,7.667,8.275,7.791c-0.994,1.656-1.325,3.457-0.994,5.404
	c0.083,0.497,0.311,1.056,0.683,1.677c0.538,0.911,0.745,1.615,0.621,2.112c-0.083,0.331-0.248,0.828-0.497,1.491
	c-3.064-0.828-4.555-3.271-4.472-7.329C3.699,8.288,4.817,5.803,6.97,3.692c2.153-2.029,4.617-3.209,7.391-3.54
	c3.561-0.373,6.646,0.228,9.254,1.801c2.691,1.656,4.224,3.975,4.596,6.956c0.538,3.727-0.166,7.101-2.112,10.124
	c-1.905,2.981-4.575,4.348-8.012,4.099c-0.994-0.083-2.091-0.538-3.292-1.366C14.465,21.559,14.134,21.331,13.802,21.083z"/>
</svg>
