<?xml version="1.0" encoding="utf-8"?>
<!-- Generator: Adobe Illustrator 18.1.1, SVG Export Plug-In . SVG Version: 6.00 Build 0)  -->
<svg version="1.1" id="Layer_1" xmlns="http://www.w3.org/2000/svg" xmlns:xlink="http://www.w3.org/1999/xlink" x="0px" y="0px"
	 viewBox="0 0 32 32" enable-background="new 0 0 32 32" xml:space="preserve">
<path d="M22.894,30.075c-2.245,1.212-4.624,1.818-7.138,1.818c-1.077,0-2.335-0.202-3.771-0.606
	c-1.302-0.539-2.245-1.055-2.828-1.549c-0.898-0.853-1.437-1.594-1.616-2.222c-0.314-0.673-0.471-1.773-0.471-3.3V13.104H3.634
	V8.592C7.45,7.29,9.56,4.462,9.964,0.107h4.445v8.014h7.475v4.983h-7.475v8.149c0,1.886,0.112,3.053,0.337,3.502
	c0.269,0.539,0.629,0.943,1.077,1.212c0.718,0.494,1.504,0.741,2.357,0.741c1.571-0.045,3.143-0.584,4.714-1.616V30.075z"/>
</svg>
