<?xml version="1.0" encoding="utf-8"?>
<!-- Generator: Adobe Illustrator 18.1.1, SVG Export Plug-In . SVG Version: 6.00 Build 0)  -->
<svg version="1.1" id="Layer_1" xmlns="http://www.w3.org/2000/svg" xmlns:xlink="http://www.w3.org/1999/xlink" x="0px" y="0px"
	 viewBox="0 0 32 32" enable-background="new 0 0 32 32" xml:space="preserve">
<path d="M31.904,6.208c-0.852,1.211-1.952,2.333-3.298,3.365v0.808c0,3.006-0.673,5.877-2.019,8.614
	c-1.391,2.737-3.544,5.07-6.461,6.999c-2.916,1.884-6.236,2.827-9.96,2.827c-3.769-0.045-7.111-1.009-10.027-2.894
	c0.269,0.045,0.808,0.067,1.615,0.067c3.051-0.045,5.743-0.942,8.076-2.692c-2.468-0.045-4.285-1.122-5.451-3.23
	c-0.269-0.449-0.471-0.897-0.606-1.346c0.314,0.09,0.695,0.135,1.144,0.135c0.628,0,1.211-0.067,1.75-0.202
	c-2.198-0.494-3.746-1.75-4.644-3.769c-0.359-0.852-0.538-1.727-0.538-2.625v-0.067c0.852,0.449,1.817,0.718,2.894,0.808
	C2.495,11.614,1.53,9.797,1.486,7.554C1.53,6.432,1.822,5.356,2.36,4.324c3.589,4.262,8.076,6.506,13.46,6.73
	c-0.135-0.404-0.202-0.875-0.202-1.413c0-2.378,1.032-4.217,3.096-5.518c1.077-0.628,2.221-0.942,3.432-0.942
	c1.974,0.045,3.544,0.695,4.711,1.952c1.481-0.314,2.849-0.808,4.105-1.481c-0.494,1.481-1.436,2.669-2.827,3.567
	C29.706,6.948,30.962,6.612,31.904,6.208z"/>
</svg>
