<?xml version="1.0" encoding="utf-8"?>
<!-- Generator: Adobe Illustrator 14.0.0, SVG Export Plug-In  -->
<!DOCTYPE svg PUBLIC "-//W3C//DTD SVG 1.1//EN" "http://www.w3.org/Graphics/SVG/1.1/DTD/svg11.dtd" [
	<!ENTITY ns_flows "http://ns.adobe.com/Flows/1.0/">
]>
<svg version="1.1"
	 xmlns="http://www.w3.org/2000/svg" xmlns:xlink="http://www.w3.org/1999/xlink" xmlns:a="http://ns.adobe.com/AdobeSVGViewerExtensions/3.0/"
	 x="0px" y="0px" width="32px" height="32px" viewBox="-0.242 -3.015 32 32" enable-background="new -0.242 -3.015 32 32"
	 xml:space="preserve">
<defs>
</defs>
<path d="M7.302,25.959C2.968,25.959,0,22.415,0,17.209C0,10.774,4.191,4.843,12.224,0l1.954,2.964
	c-4.485,3.109-7.159,6.58-7.159,9.327c0,0.291,0.283,0.436,0.283,0.436s0.582-0.145,0.871-0.145c3.473,0,6.076,2.676,6.076,6.218
	C14.249,22.851,11.211,25.959,7.302,25.959z M24.517,25.959c-4.345,0-7.308-3.545-7.308-8.75c0-6.435,4.199-12.367,12.219-17.209
	l1.954,2.964c-4.48,3.109-7.159,6.58-7.159,9.327c0,0.291,0.294,0.436,0.294,0.436s0.577-0.145,0.865-0.145
	c3.469,0,6.071,2.676,6.071,6.218C31.453,22.851,28.414,25.959,24.517,25.959z"/>
</svg>
