<?xml version="1.0" encoding="utf-8"?>
<!-- Generator: Adobe Illustrator 14.0.0, SVG Export Plug-In  -->
<!DOCTYPE svg PUBLIC "-//W3C//DTD SVG 1.1//EN" "http://www.w3.org/Graphics/SVG/1.1/DTD/svg11.dtd" [
	<!ENTITY ns_flows "http://ns.adobe.com/Flows/1.0/">
]>
<svg version="1.1"
	 xmlns="http://www.w3.org/2000/svg" xmlns:xlink="http://www.w3.org/1999/xlink" xmlns:a="http://ns.adobe.com/AdobeSVGViewerExtensions/3.0/"
	 x="0px" y="0px" width="32px" height="32px" viewBox="-0.273 -2.857 32 32" enable-background="new -0.273 -2.857 32 32"
	 xml:space="preserve">
<defs>
</defs>
<path d="M24.151,0c4.334,0,7.302,3.545,7.302,8.75c0,6.435-4.191,12.367-12.224,17.209l-1.954-2.965
	c4.485-3.108,7.159-6.579,7.159-9.326c0-0.291-0.283-0.436-0.283-0.436s-0.582,0.145-0.871,0.145c-3.473,0-6.076-2.676-6.076-6.218
	C17.204,3.108,20.242,0,24.151,0z M6.937,0c4.345,0,7.308,3.545,7.308,8.75c0,6.435-4.199,12.367-12.219,17.209l-1.954-2.965
	c4.48-3.108,7.159-6.579,7.159-9.326c0-0.291-0.294-0.436-0.294-0.436s-0.577,0.145-0.865,0.145C2.603,13.377,0,10.701,0,7.159
	C0,3.108,3.039,0,6.937,0z"/>
</svg>
