<?xml version="1.0" encoding="utf-8"?>
<!-- Generator: Adobe Illustrator 14.0.0, SVG Export Plug-In . SVG Version: 6.00 Build 43363)  -->
<!DOCTYPE svg PUBLIC "-//W3C//DTD SVG 1.1//EN" "http://www.w3.org/Graphics/SVG/1.1/DTD/svg11.dtd">
<svg version="1.1" id="Layer_1" xmlns="http://www.w3.org/2000/svg" xmlns:xlink="http://www.w3.org/1999/xlink" x="0px" y="0px"
	 width="32px" height="32px" viewBox="0 0 32 32" enable-background="new 0 0 32 32" xml:space="preserve">
<path d="M26.918,0.163c1.39,0,2.538,0.479,3.449,1.438c0.959,0.911,1.438,2.06,1.438,3.45v5.391h-7.979
	c-1.964-2.684-4.574-4.025-7.833-4.025c-3.354,0-5.966,1.341-7.835,4.025H0.179V5.05c0-1.39,0.479-2.54,1.438-3.45
	c0.911-0.958,2.06-1.438,3.45-1.438H26.918z M25.551,15.976c0-0.576-0.07-1.197-0.215-1.869h6.469v12.721
	c0,1.392-0.479,2.563-1.438,3.522c-0.959,0.96-2.108,1.438-3.449,1.438H5.067c-1.342,0-2.492-0.478-3.45-1.438
	c-0.958-0.959-1.438-2.131-1.438-3.522V14.107h6.396c-0.095,1.054-0.143,1.678-0.143,1.869c0,2.587,0.934,4.842,2.803,6.755
	c1.869,1.87,4.121,2.804,6.757,2.804c2.587,0,4.84-0.934,6.755-2.804C24.617,20.817,25.551,18.562,25.551,15.976z M20.16,20.144
	c-1.149,1.151-2.538,1.726-4.168,1.726c-1.629,0-3.019-0.574-4.169-1.726c-1.15-1.149-1.725-2.538-1.725-4.168
	c0-1.726,0.575-3.115,1.725-4.169c1.15-1.15,2.54-1.725,4.169-1.725c1.63,0,3.019,0.575,4.168,1.725
	c1.15,1.054,1.727,2.443,1.727,4.169C21.887,17.605,21.311,18.994,20.16,20.144z M29.218,6.272V3.613
	c0-0.576-0.288-0.863-0.863-0.863h-2.659c-0.575,0-0.862,0.287-0.862,0.863v2.659c0,0.144,0.07,0.335,0.216,0.576
	c0.19,0.191,0.406,0.287,0.646,0.287h2.659C28.93,7.135,29.218,6.848,29.218,6.272z"/>
</svg>
