<?xml version="1.0" encoding="utf-8"?>
<!-- Generator: Adobe Illustrator 19.1.0, SVG Export Plug-In . SVG Version: 6.00 Build 0)  -->
<svg version="1.1" id="Layer_1" xmlns="http://www.w3.org/2000/svg" xmlns:xlink="http://www.w3.org/1999/xlink" x="0px" y="0px"
	 viewBox="0 0 32 32" enable-background="new 0 0 32 32" xml:space="preserve">
<polygon points="30.199,24.184 28.626,16.973 26.384,19.247 23.093,15.956 26.358,12.691 28.631,14.932 30.102,7.699 31.574,0.467 
	24.363,2.04 17.152,3.614 19.425,5.855 16.21,9.07 12.87,5.73 15.11,3.458 7.878,1.986 0.645,0.514 2.219,7.726 3.792,14.937 
	6.034,12.663 9.324,15.954 5.909,19.369 3.637,17.129 2.165,24.361 0.693,31.594 7.904,30.02 15.115,28.447 12.842,26.205 
	16.208,22.84 19.548,26.18 17.307,28.452 24.54,29.924 31.773,31.395 "/>
</svg>
