<?xml version="1.0" encoding="utf-8"?>
<!-- Generator: Adobe Illustrator 19.1.0, SVG Export Plug-In . SVG Version: 6.00 Build 0)  -->
<svg version="1.1" id="Layer_1" xmlns="http://www.w3.org/2000/svg" xmlns:xlink="http://www.w3.org/1999/xlink" x="0px" y="0px"
	 viewBox="0 0 32 32" enable-background="new 0 0 32 32" xml:space="preserve">
<g>
	<circle fill="none" stroke="#000000" stroke-miterlimit="10" cx="16" cy="15.893" r="15.085"/>
	<g>
		<path d="M14.517,26.2c-1.833,0-3.176-1.161-3.176-2.749c0-0.581,0.061-0.917,0.457-2.261l1.558-5.192
			c0.336-1.131,0.458-1.711,0.458-2.047c0-0.764-0.367-0.947-1.863-0.947h-0.733l0.214-1.435l8.155-0.428l-3.207,10.874
			c-0.275,0.947-0.306,1.038-0.306,1.283c0,0.274,0.214,0.488,0.489,0.488c0.611,0,1.619-1.13,3.085-3.451l1.192,0.855
			C18.763,24.672,16.839,26.2,14.517,26.2z M18.275,8.667c-1.192,0-2.169-1.007-2.169-2.199s0.977-2.169,2.199-2.169
			c1.192,0,2.169,0.977,2.169,2.169C20.474,7.689,19.496,8.667,18.275,8.667z"/>
	</g>
</g>
</svg>
