<?xml version="1.0" encoding="utf-8"?>
<!-- Generator: Adobe Illustrator 19.1.0, SVG Export Plug-In . SVG Version: 6.00 Build 0)  -->
<svg version="1.1" id="Layer_1" xmlns="http://www.w3.org/2000/svg" xmlns:xlink="http://www.w3.org/1999/xlink" x="0px" y="0px"
	 viewBox="0 0 32 32" enable-background="new 0 0 32 32" xml:space="preserve">
<g>
	<circle fill="none" stroke="#000000" stroke-miterlimit="10" cx="16.106" cy="15.895" r="15.085"/>
	<g>
		<path d="M15.447,23.709v-1.557h0.367c0.825,0,1.069-0.214,1.069-0.703c0-0.213-0.092-0.397-0.336-0.672l-1.802-2.169l-1.832,1.802
			c-0.275,0.275-0.427,0.581-0.427,0.886c0,0.519,0.55,0.856,1.436,0.856h0.397v1.557H7.17v-1.557
			c0.886-0.031,1.618-0.367,2.718-1.406l3.696-3.512L9.216,12.01c-0.794-0.947-1.13-1.131-2.046-1.192V9.261h9.041v1.557h-0.336
			c-0.642,0-1.008,0.183-1.008,0.489c0,0.183,0.092,0.366,0.336,0.641l1.742,2.108l1.557-1.497c0.458-0.427,0.642-0.732,0.642-1.038
			c0-0.427-0.458-0.702-1.222-0.702h-0.703V9.261h7.515v1.557c-1.313,0-2.23,0.427-3.482,1.588l-3.176,2.994l4.215,5.009
			c1.252,1.527,1.619,1.711,2.749,1.742v1.557H15.447z"/>
	</g>
</g>
</svg>
