<?xml version="1.0" encoding="utf-8"?>
<!-- Generator: Adobe Illustrator 19.1.0, SVG Export Plug-In . SVG Version: 6.00 Build 0)  -->
<svg version="1.1" id="Layer_1" xmlns="http://www.w3.org/2000/svg" xmlns:xlink="http://www.w3.org/1999/xlink" x="0px" y="0px"
	 viewBox="0 0 32 32" enable-background="new 0 0 32 32" xml:space="preserve">
<g>
	<path d="M1.222,7.12C1.21,7.198,1.2,7.277,1.19,7.356C1.189,7.372,1.187,7.387,1.185,7.403c-0.009,0.08-0.017,0.16-0.023,0.241
		c0,0,0,0,0,0c-0.006,0.078-0.01,0.157-0.013,0.237C1.148,7.9,1.147,7.92,1.147,7.939c-0.003,0.08-0.005,0.16-0.005,0.24v15.641
		c0,0.055,0.001,0.11,0.002,0.165c0,0.018,0.001,0.035,0.002,0.053c0.001,0.037,0.003,0.075,0.004,0.112
		c0.001,0.02,0.002,0.04,0.003,0.061c0.002,0.036,0.004,0.072,0.007,0.108c0.001,0.019,0.003,0.038,0.004,0.058
		c0.004,0.051,0.008,0.101,0.014,0.152c0.002,0.022,0.005,0.044,0.007,0.066c0.003,0.03,0.007,0.06,0.01,0.09
		c0.003,0.028,0.007,0.055,0.011,0.083c0.003,0.024,0.006,0.047,0.01,0.07c0.004,0.03,0.009,0.06,0.014,0.09
		c0.003,0.018,0.006,0.036,0.009,0.054c0.02,0.117,0.042,0.233,0.067,0.348c0.002,0.008,0.004,0.017,0.006,0.025
		c0.009,0.039,0.018,0.078,0.027,0.117c0.002,0.007,0.003,0.014,0.005,0.02c0.042,0.173,0.091,0.344,0.146,0.513c0,0,0,0,0,0
		l10.64-9.229L1.222,7.12z"/>
	<path d="M19.163,17.337l-3.179,2.851l-3.171-2.807L1.848,26.891c0.033,0.069,0.068,0.137,0.104,0.204
		c0.004,0.008,0.009,0.017,0.013,0.025c0.072,0.136,0.149,0.269,0.23,0.4c0.005,0.008,0.01,0.016,0.015,0.025
		c0.082,0.131,0.168,0.258,0.257,0.383c0.005,0.006,0.009,0.013,0.014,0.019c0.042,0.058,0.085,0.115,0.128,0.171
		c0.004,0.005,0.008,0.01,0.012,0.016c0.048,0.061,0.096,0.122,0.146,0.182c0.002,0.002,0.004,0.005,0.006,0.007
		c0.046,0.056,0.094,0.11,0.142,0.165c0.007,0.008,0.014,0.016,0.021,0.023c0.101,0.113,0.205,0.222,0.313,0.328
		c0.009,0.008,0.017,0.017,0.026,0.025c0.108,0.105,0.219,0.207,0.334,0.305c0.009,0.008,0.018,0.015,0.027,0.023
		c0.051,0.044,0.104,0.087,0.156,0.129c0.007,0.006,0.014,0.011,0.021,0.017c0.059,0.047,0.119,0.093,0.18,0.138
		c0.007,0.005,0.014,0.01,0.022,0.016c0.054,0.039,0.108,0.078,0.162,0.116c0.011,0.008,0.022,0.016,0.033,0.023
		c0.062,0.043,0.125,0.084,0.188,0.125c0.001,0.001,0.002,0.001,0.003,0.002c0.061,0.039,0.122,0.076,0.184,0.113
		c0.014,0.008,0.027,0.016,0.041,0.024C4.689,29.93,4.752,29.966,4.815,30c0.001,0.001,0.003,0.002,0.004,0.002
		c0.065,0.036,0.131,0.07,0.198,0.104c0.014,0.007,0.029,0.014,0.043,0.021c0.057,0.028,0.114,0.056,0.172,0.082
		c0.011,0.005,0.022,0.01,0.033,0.015c0.067,0.031,0.135,0.06,0.203,0.089c0.013,0.006,0.026,0.011,0.04,0.016
		c0.057,0.024,0.115,0.046,0.172,0.068c0.016,0.006,0.031,0.012,0.047,0.018c0.069,0.026,0.139,0.051,0.209,0.074
		c0.008,0.003,0.017,0.005,0.025,0.008c0.062,0.021,0.125,0.041,0.188,0.06c0.018,0.005,0.036,0.011,0.055,0.016
		c0.069,0.02,0.138,0.04,0.208,0.058c0.002,0.001,0.005,0.001,0.007,0.002c0.072,0.019,0.145,0.036,0.217,0.052
		c0.019,0.004,0.038,0.008,0.057,0.012c0.061,0.013,0.122,0.026,0.184,0.037c0.014,0.003,0.027,0.005,0.041,0.008
		c0.073,0.013,0.147,0.025,0.221,0.036c0.017,0.003,0.035,0.005,0.053,0.007c0.06,0.009,0.121,0.016,0.182,0.023
		c0.019,0.002,0.037,0.004,0.056,0.006c0.075,0.008,0.15,0.015,0.225,0.021c0.013,0.001,0.026,0.002,0.039,0.002
		c0.064,0.004,0.129,0.008,0.194,0.011c0.021,0.001,0.042,0.002,0.062,0.002c0.077,0.002,0.154,0.004,0.231,0.004h15.641h0
		c0.078,0,0.156-0.002,0.233-0.004c0.021-0.001,0.041-0.002,0.062-0.002c0.067-0.003,0.134-0.006,0.2-0.011
		c0.011-0.001,0.023-0.001,0.034-0.002c0.076-0.006,0.152-0.013,0.227-0.021c0.019-0.002,0.038-0.004,0.057-0.007
		c0.062-0.007,0.124-0.015,0.186-0.024c0.016-0.002,0.032-0.004,0.048-0.007c0.074-0.011,0.148-0.023,0.222-0.037
		c0.016-0.003,0.031-0.006,0.047-0.009c0.061-0.012,0.123-0.024,0.183-0.037c0.018-0.004,0.035-0.008,0.053-0.011
		c0.073-0.017,0.146-0.034,0.218-0.053c0.009-0.002,0.019-0.005,0.028-0.008c0.064-0.017,0.128-0.035,0.191-0.054
		c0.018-0.005,0.035-0.01,0.053-0.016c0.144-0.044,0.286-0.092,0.425-0.144c0.016-0.006,0.032-0.012,0.048-0.018
		c0.064-0.025,0.128-0.05,0.191-0.076c0.006-0.003,0.012-0.005,0.018-0.007c0.069-0.029,0.138-0.06,0.206-0.091
		c0.013-0.006,0.027-0.012,0.04-0.019c0.06-0.028,0.119-0.056,0.177-0.086c0.01-0.005,0.019-0.01,0.029-0.014
		c0.067-0.034,0.134-0.07,0.2-0.106c0.009-0.005,0.018-0.01,0.027-0.015c0.059-0.033,0.117-0.066,0.175-0.1
		c0.011-0.006,0.021-0.013,0.032-0.019c0.066-0.039,0.131-0.08,0.195-0.121c0.002-0.001,0.004-0.003,0.006-0.004
		c0.061-0.04,0.122-0.081,0.182-0.122c0.01-0.007,0.02-0.014,0.03-0.021c0.125-0.087,0.247-0.179,0.366-0.274
		c0.008-0.007,0.017-0.014,0.025-0.02c0.12-0.097,0.237-0.197,0.35-0.302c0.006-0.005,0.011-0.011,0.017-0.016
		c0.055-0.051,0.109-0.102,0.162-0.155c0.002-0.002,0.004-0.004,0.006-0.006c0.057-0.056,0.112-0.113,0.167-0.171
		c0.002-0.002,0.004-0.004,0.006-0.006c0.052-0.055,0.103-0.112,0.154-0.169c0.004-0.004,0.007-0.008,0.011-0.012
		c0.104-0.118,0.204-0.24,0.3-0.365c0.004-0.005,0.008-0.01,0.011-0.015c0.096-0.125,0.187-0.254,0.274-0.385
		c0.003-0.005,0.006-0.01,0.009-0.014c0.087-0.133,0.17-0.268,0.249-0.407c0.002-0.003,0.004-0.007,0.006-0.01
		c0.079-0.141,0.154-0.284,0.224-0.431c0,0,0,0,0,0L19.163,17.337z"/>
	<path d="M30.51,26.007C30.51,26.007,30.51,26.007,30.51,26.007c0.055-0.168,0.104-0.339,0.146-0.513
		c0.002-0.007,0.003-0.014,0.005-0.021c0.009-0.039,0.018-0.078,0.027-0.117c0.002-0.009,0.004-0.017,0.006-0.026
		c0.025-0.115,0.047-0.23,0.067-0.347c0.003-0.019,0.006-0.037,0.009-0.056c0.005-0.03,0.009-0.059,0.013-0.089
		c0.003-0.024,0.007-0.048,0.01-0.072c0.004-0.027,0.007-0.055,0.011-0.082c0.004-0.03,0.007-0.061,0.01-0.091
		c0.002-0.022,0.005-0.043,0.007-0.065c0.005-0.051,0.01-0.101,0.014-0.152c0.001-0.019,0.003-0.038,0.004-0.057
		c0.003-0.036,0.005-0.072,0.007-0.108c0.001-0.02,0.002-0.04,0.003-0.06c0.002-0.038,0.003-0.075,0.004-0.113
		c0.001-0.017,0.001-0.035,0.002-0.052c0.001-0.055,0.002-0.11,0.002-0.165V8.179c0-0.057-0.001-0.114-0.002-0.17
		c0-0.019-0.001-0.038-0.002-0.058c-0.001-0.037-0.002-0.074-0.004-0.111c-0.001-0.023-0.003-0.047-0.004-0.07
		c-0.002-0.032-0.004-0.065-0.006-0.097c-0.002-0.025-0.004-0.05-0.006-0.076c-0.002-0.03-0.005-0.06-0.008-0.09
		c-0.003-0.026-0.005-0.053-0.008-0.079c-0.003-0.028-0.006-0.057-0.01-0.085c-0.003-0.027-0.006-0.054-0.01-0.081
		c-0.004-0.027-0.008-0.054-0.011-0.082c-0.004-0.028-0.008-0.055-0.012-0.083c-0.008-0.05-0.016-0.101-0.025-0.151l-10.955,9.824
		L30.51,26.007z"/>
	<path d="M15.982,18.734l14.452-12.96c-0.008-0.022-0.017-0.044-0.025-0.066c-0.01-0.026-0.02-0.052-0.03-0.078
		c-0.009-0.024-0.019-0.048-0.028-0.071c-0.01-0.024-0.02-0.048-0.03-0.072c-0.01-0.024-0.02-0.047-0.03-0.071
		c-0.011-0.026-0.022-0.051-0.034-0.077c-0.013-0.03-0.027-0.06-0.04-0.09c-0.015-0.034-0.031-0.067-0.047-0.1
		c-0.011-0.022-0.022-0.044-0.033-0.067c-0.012-0.024-0.023-0.047-0.035-0.071c-0.012-0.023-0.023-0.045-0.035-0.068
		c-0.012-0.023-0.024-0.046-0.037-0.069c-0.012-0.022-0.023-0.044-0.035-0.066c-0.016-0.029-0.032-0.058-0.049-0.087
		c-0.017-0.031-0.035-0.061-0.053-0.091c-0.015-0.025-0.029-0.05-0.044-0.074c-0.013-0.021-0.026-0.042-0.039-0.063
		c-0.014-0.022-0.028-0.045-0.042-0.067c-0.013-0.021-0.027-0.042-0.04-0.063c-0.015-0.023-0.03-0.046-0.046-0.069
		c-0.013-0.019-0.025-0.038-0.038-0.057c-0.026-0.038-0.053-0.077-0.079-0.115c-0.013-0.019-0.027-0.037-0.04-0.056
		c-0.016-0.023-0.033-0.045-0.049-0.067c-0.014-0.02-0.029-0.039-0.044-0.058c-0.016-0.022-0.033-0.043-0.05-0.065
		c-0.015-0.019-0.029-0.038-0.044-0.056c-0.02-0.025-0.041-0.051-0.061-0.076c-0.019-0.024-0.039-0.047-0.058-0.071
		c-0.022-0.026-0.044-0.053-0.067-0.079c-0.015-0.017-0.03-0.034-0.045-0.052c-0.019-0.021-0.037-0.042-0.056-0.063
		c-0.016-0.017-0.031-0.035-0.047-0.052c-0.02-0.021-0.04-0.043-0.06-0.064c-0.015-0.016-0.03-0.032-0.045-0.047
		c-0.033-0.034-0.066-0.068-0.099-0.102c-0.014-0.014-0.028-0.027-0.041-0.041c-0.022-0.022-0.045-0.044-0.068-0.066
		c-0.016-0.016-0.033-0.031-0.049-0.046c-0.021-0.02-0.043-0.04-0.064-0.06c-0.016-0.015-0.032-0.03-0.049-0.045
		c-0.025-0.023-0.051-0.045-0.076-0.067c-0.013-0.011-0.025-0.022-0.038-0.033c-0.036-0.031-0.073-0.062-0.11-0.093
		c-0.015-0.013-0.031-0.025-0.047-0.038c-0.024-0.02-0.048-0.039-0.073-0.059c-0.017-0.013-0.034-0.027-0.051-0.04
		c-0.025-0.019-0.05-0.038-0.075-0.057c-0.016-0.012-0.031-0.024-0.047-0.036c-0.039-0.029-0.079-0.058-0.118-0.086
		c-0.011-0.008-0.022-0.015-0.033-0.023c-0.031-0.022-0.062-0.043-0.093-0.064c-0.017-0.011-0.033-0.022-0.05-0.034
		c-0.027-0.018-0.053-0.035-0.08-0.053c-0.017-0.011-0.034-0.022-0.051-0.033c-0.03-0.019-0.06-0.038-0.09-0.056
		c-0.013-0.008-0.027-0.017-0.04-0.025c-0.042-0.026-0.085-0.051-0.128-0.076c-0.014-0.008-0.029-0.016-0.044-0.025
		c-0.03-0.017-0.061-0.034-0.092-0.051c-0.017-0.009-0.035-0.019-0.052-0.028c-0.03-0.016-0.059-0.032-0.089-0.047
		c-0.016-0.009-0.033-0.017-0.049-0.026c-0.041-0.021-0.082-0.041-0.123-0.061c-0.008-0.004-0.016-0.008-0.023-0.011
		c-0.043-0.021-0.086-0.041-0.13-0.061c-0.016-0.007-0.032-0.014-0.048-0.022c-0.032-0.014-0.064-0.028-0.096-0.042
		c-0.017-0.007-0.035-0.015-0.052-0.022c-0.034-0.014-0.068-0.028-0.102-0.042c-0.014-0.006-0.028-0.012-0.043-0.017
		c-0.048-0.019-0.095-0.037-0.144-0.055c-0.012-0.004-0.023-0.008-0.035-0.013c-0.038-0.014-0.075-0.027-0.113-0.04
		c-0.017-0.006-0.034-0.012-0.052-0.017c-0.034-0.011-0.068-0.022-0.102-0.033c-0.017-0.005-0.034-0.011-0.051-0.016
		c-0.042-0.013-0.084-0.025-0.126-0.038c-0.008-0.002-0.017-0.005-0.025-0.007c-0.05-0.014-0.101-0.028-0.151-0.041
		c-0.015-0.004-0.03-0.008-0.046-0.011c-0.037-0.009-0.073-0.018-0.11-0.027c-0.018-0.004-0.036-0.008-0.053-0.012
		C25.344,1.308,25.307,1.3,25.27,1.292c-0.015-0.003-0.031-0.007-0.046-0.01c-0.052-0.011-0.104-0.021-0.156-0.03
		c-0.007-0.001-0.015-0.002-0.022-0.004c-0.045-0.008-0.091-0.016-0.136-0.023c-0.017-0.003-0.034-0.005-0.051-0.008
		c-0.037-0.006-0.074-0.011-0.112-0.016c-0.018-0.002-0.035-0.005-0.053-0.007c-0.042-0.005-0.084-0.01-0.127-0.015
		c-0.012-0.001-0.023-0.003-0.034-0.004c-0.053-0.005-0.107-0.01-0.161-0.014c-0.014-0.001-0.028-0.002-0.042-0.003
		c-0.041-0.003-0.081-0.006-0.122-0.008c-0.018-0.001-0.036-0.002-0.055-0.003c-0.039-0.002-0.078-0.003-0.116-0.004
		c-0.017-0.001-0.034-0.001-0.051-0.002c-0.055-0.001-0.11-0.002-0.165-0.002H8.179c-0.055,0-0.111,0.001-0.166,0.002
		c-0.017,0-0.034,0.001-0.052,0.002C7.924,1.147,7.885,1.148,7.847,1.15C7.828,1.151,7.809,1.152,7.79,1.153
		C7.751,1.155,7.713,1.158,7.674,1.16c-0.017,0.001-0.033,0.002-0.05,0.004C7.57,1.168,7.516,1.173,7.462,1.178
		c-0.003,0-0.007,0.001-0.01,0.001C7.401,1.185,7.351,1.191,7.301,1.197C7.284,1.199,7.267,1.201,7.25,1.204
		c-0.037,0.005-0.074,0.01-0.112,0.016C7.12,1.222,7.101,1.225,7.083,1.228C7.045,1.234,7.007,1.24,6.969,1.246
		C6.954,1.249,6.938,1.252,6.922,1.255c-0.053,0.01-0.105,0.02-0.157,0.03C6.759,1.286,6.754,1.287,6.748,1.289
		c-0.047,0.01-0.093,0.02-0.139,0.03c-0.017,0.004-0.033,0.008-0.05,0.012C6.523,1.339,6.487,1.348,6.451,1.357
		C6.434,1.361,6.416,1.366,6.398,1.371c-0.037,0.01-0.074,0.02-0.11,0.03c-0.015,0.004-0.03,0.008-0.044,0.012
		C6.193,1.427,6.143,1.442,6.092,1.458C6.085,1.46,6.077,1.463,6.069,1.465C6.027,1.479,5.984,1.493,5.942,1.507
		C5.926,1.512,5.909,1.518,5.893,1.524C5.859,1.535,5.825,1.547,5.791,1.56C5.773,1.566,5.756,1.572,5.739,1.578
		C5.704,1.592,5.668,1.605,5.632,1.619C5.619,1.624,5.605,1.63,5.592,1.635C5.543,1.654,5.495,1.674,5.447,1.694
		C5.438,1.698,5.429,1.702,5.42,1.706C5.381,1.723,5.342,1.74,5.303,1.757C5.288,1.764,5.272,1.771,5.256,1.779
		c-0.033,0.015-0.065,0.03-0.097,0.045C5.143,1.832,5.126,1.84,5.11,1.847C5.076,1.864,5.041,1.881,5.007,1.899
		C4.995,1.905,4.982,1.911,4.97,1.918C4.924,1.941,4.878,1.965,4.833,1.99c-0.01,0.005-0.02,0.011-0.029,0.016
		c-0.036,0.02-0.071,0.04-0.107,0.06C4.681,2.075,4.666,2.084,4.651,2.092C4.621,2.11,4.59,2.128,4.56,2.146
		C4.545,2.156,4.529,2.165,4.514,2.174c-0.033,0.02-0.066,0.041-0.098,0.061C4.405,2.243,4.393,2.25,4.382,2.257
		C4.339,2.285,4.296,2.313,4.253,2.342c-0.01,0.007-0.02,0.014-0.03,0.02C4.191,2.385,4.158,2.407,4.126,2.43
		C4.111,2.44,4.097,2.451,4.082,2.461c-0.028,0.02-0.057,0.041-0.085,0.062C3.983,2.534,3.969,2.544,3.954,2.555
		C3.923,2.579,3.892,2.602,3.861,2.626c-0.01,0.008-0.02,0.015-0.03,0.023c-0.04,0.032-0.08,0.064-0.119,0.096
		c-0.01,0.008-0.02,0.017-0.03,0.025c-0.03,0.025-0.059,0.05-0.088,0.075C3.58,2.858,3.566,2.869,3.553,2.881
		C3.527,2.904,3.5,2.927,3.475,2.951C3.461,2.963,3.448,2.974,3.435,2.986c-0.03,0.027-0.059,0.054-0.088,0.082
		C3.339,3.076,3.33,3.084,3.322,3.092c-0.037,0.035-0.073,0.071-0.11,0.107c-0.01,0.01-0.02,0.02-0.029,0.03
		C3.156,3.256,3.13,3.283,3.104,3.31c-0.013,0.013-0.025,0.026-0.038,0.04C3.042,3.375,3.019,3.4,2.995,3.426
		C2.983,3.439,2.971,3.452,2.959,3.465c-0.028,0.03-0.055,0.061-0.082,0.092C2.871,3.565,2.864,3.573,2.857,3.58
		C2.823,3.619,2.79,3.658,2.758,3.697C2.748,3.709,2.739,3.72,2.73,3.732C2.706,3.76,2.683,3.789,2.66,3.818
		C2.649,3.833,2.638,3.847,2.626,3.862C2.605,3.889,2.584,3.917,2.563,3.945C2.552,3.959,2.541,3.972,2.531,3.987
		c-0.025,0.034-0.05,0.068-0.075,0.103C2.451,4.097,2.445,4.104,2.44,4.112C2.41,4.153,2.381,4.195,2.352,4.238
		C2.344,4.251,2.335,4.263,2.327,4.276c-0.02,0.03-0.04,0.061-0.06,0.092c-0.01,0.016-0.02,0.031-0.03,0.047
		c-0.019,0.03-0.037,0.059-0.056,0.089c-0.009,0.015-0.018,0.03-0.027,0.045C2.131,4.586,2.108,4.624,2.086,4.662
		c-0.004,0.007-0.008,0.014-0.012,0.02C2.049,4.727,2.024,4.771,1.999,4.816C1.991,4.83,1.984,4.845,1.976,4.859
		C1.959,4.891,1.942,4.923,1.925,4.955C1.917,4.971,1.908,4.988,1.9,5.005C1.884,5.036,1.868,5.068,1.853,5.1
		C1.845,5.115,1.837,5.131,1.83,5.146C1.81,5.188,1.79,5.23,1.771,5.273c-0.002,0.005-0.005,0.01-0.007,0.015
		C1.743,5.335,1.722,5.382,1.702,5.43C1.695,5.445,1.689,5.46,1.682,5.476c-0.014,0.033-0.028,0.067-0.041,0.1
		C1.634,5.593,1.628,5.611,1.621,5.628C1.608,5.662,1.595,5.695,1.582,5.729C1.576,5.745,1.57,5.761,1.564,5.777
		c-0.017,0.047-0.034,0.093-0.05,0.14C1.514,5.92,1.513,5.923,1.512,5.925L15.982,18.734z"/>
</g>
</svg>
