<?xml version="1.0" encoding="utf-8"?>
<!-- Generated by IcoMoon.io -->
<!DOCTYPE svg PUBLIC "-//W3C//DTD SVG 1.1//EN" "http://www.w3.org/Graphics/SVG/1.1/DTD/svg11.dtd">
<svg version="1.1" xmlns="http://www.w3.org/2000/svg" xmlns:xlink="http://www.w3.org/1999/xlink" width="32" height="32" viewBox="0 0 32 32">
<path fill="#444" d="M14.47 15.893l-14.164 14.164c-0.394 0.393-0.394 1.031 0 1.425 0.197 0.197 0.455 0.295 0.712 0.295s0.516-0.098 0.712-0.295l14.271-14.27 14.271 14.27c0.197 0.197 0.454 0.295 0.712 0.295s0.515-0.098 0.712-0.295c0.394-0.393 0.394-1.031 0-1.425l-14.163-14.164 14.173-14.174c0.394-0.393 0.394-1.031 0-1.425s-1.031-0.393-1.424 0l-14.279 14.28-14.281-14.28c-0.393-0.393-1.030-0.393-1.424 0s-0.394 1.031 0 1.425l14.174 14.174z"></path>
</svg>
