<?xml version="1.0" encoding="utf-8"?>
<!-- Generator: Adobe Illustrator 19.0.0, SVG Export Plug-In . SVG Version: 6.00 Build 0)  -->
<svg version="1.1" id="Layer_1" xmlns="http://www.w3.org/2000/svg" xmlns:xlink="http://www.w3.org/1999/xlink" x="0px" y="0px"
	 viewBox="0 0 199.5 39.8" style="enable-background:new 0 0 199.5 39.8;" xml:space="preserve">
<style type="text/css">
	.st0{fill:#D12026;}
</style>
<g>
	<path class="st0" d="M9.1,34.3V9.6c0.7,0,1.1,0.2,1.4,0.7l6.9,14.8l6.9-14.8c0.2-0.5,0.7-0.7,1.4-0.7v24.7h-4.1v-9.3l-4.1,9.3
		l-4.1-9.3v9.3H9.1z M4,34.3V4.5h6.2c2.3,0,4,1,5.1,3.1l2.1,4.1l2.1-4.1c1.1-2.1,2.9-3.1,5.1-3.1h6.2v29.9h-4.1V8.6h-1
		c-1.4,0-2.4,0.7-3.1,2.1L17.4,22l-5.1-11.3c-0.7-1.4-1.7-2.1-3.1-2.1h-1v25.7H4z"/>
	<path class="st0" d="M51.4,34.3h-4.1L42.1,24v10.3H38V19.9h6.2L51.4,34.3z M51.4,14.3c0,1.3-0.5,2.4-1.4,3.3
		c-0.9,0.9-1.8,1.4-2.8,1.4H36.9v15.4h-4.1V14.8h13.4c0.7,0,1-0.2,1-0.5c0-0.3-0.3-0.5-1-0.5H32.8V9.6h14.4c0.9,0,1.9,0.5,2.8,1.4
		C50.9,11.9,51.4,13,51.4,14.3 M56.5,14.3c0,2.7-0.7,4.7-2.1,6.1c-1.4,1.4-2.6,2.3-3.5,2.8l5.6,11.2h-4.1l-7.2-14.4h2.1
		c1.2,0,2.4-0.6,3.5-1.7c1.1-1.1,1.7-2.4,1.7-4c0-1.5-0.6-2.9-1.7-4c-1.1-1.1-2.3-1.7-3.5-1.7H32.8V4.5h14.4c2.4,0,4.5,1,6.4,2.9
		C55.6,9.3,56.5,11.6,56.5,14.3"/>
	<path class="st0" d="M93.2,34.3h-4.1L83.9,24v10.3h-4.1V19.9H86L93.2,34.3z M93.2,14.3c0,1.3-0.5,2.4-1.4,3.3
		c-0.9,0.9-1.8,1.4-2.8,1.4H78.8v15.4h-4.1V14.8h13.4c0.7,0,1-0.2,1-0.5c0-0.3-0.3-0.5-1-0.5H74.7V9.6h14.4c0.9,0,1.9,0.5,2.8,1.4
		C92.8,11.9,93.2,13,93.2,14.3 M98.4,14.3c0,2.7-0.7,4.7-2.1,6.1c-1.4,1.4-2.6,2.3-3.5,2.8l5.6,11.2h-4.1L87,19.9h2.1
		c1.2,0,2.4-0.6,3.5-1.7c1.1-1.1,1.7-2.4,1.7-4c0-1.5-0.6-2.9-1.7-4c-1.1-1.1-2.3-1.7-3.5-1.7H74.7V4.5h14.4c2.4,0,4.5,1,6.4,2.9
		C97.4,9.3,98.4,11.6,98.4,14.3"/>
	<path class="st0" d="M113.5,14.8c0-0.7-0.3-1-1-1h-2.1c-0.7,0-1,0.3-1,1V24c0,0.7,0.3,1,1,1h2.1c0.7,0,1-0.3,1-1V14.8z M117.6,13.7
		v11.3c0,2.7-1.4,4.1-4.1,4.1h-4.1c-2.7,0-4.1-1.4-4.1-4.1V13.7c0-2.7,1.4-4.1,4.1-4.1h4.1C116.3,9.6,117.6,11,117.6,13.7
		 M118.7,13.7c0-3.4-1.7-5.1-5.2-5.1h-4.1c-3.4,0-5.1,1.7-5.1,5.1v11.3c0,3.4,1.7,5.1,5.1,5.1h4.1c3.4,0,5.2-1.7,5.2-5.1V13.7z
		 M122.8,13.7v11.3c0,6.2-3.1,9.3-9.3,9.3h-4.1c-6.2,0-9.3-3.1-9.3-9.3V13.7c0-6.2,3.1-9.3,9.3-9.3h4.1
		C119.7,4.5,122.8,7.6,122.8,13.7"/>
	<path class="st0" d="M160.5,14.8c0-0.7-0.3-1-1-1h-2.1c-0.7,0-1,0.3-1,1V24c0,0.7,0.3,1,1,1h2.1c0.7,0,1-0.3,1-1V14.8z M164.7,13.7
		v11.3c0,2.7-1.4,4.1-4.1,4.1h-4.1c-2.7,0-4.1-1.4-4.1-4.1V13.7c0-2.7,1.4-4.1,4.1-4.1h4.1C163.3,9.6,164.7,11,164.7,13.7
		 M165.7,13.7c0-3.4-1.7-5.1-5.1-5.1h-4.1c-3.4,0-5.1,1.7-5.1,5.1v11.3c0,3.4,1.7,5.1,5.1,5.1h4.1c3.4,0,5.1-1.7,5.1-5.1V13.7z
		 M169.8,13.7v11.3c0,6.2-3.1,9.3-9.3,9.3h-4.1c-6.2,0-9.3-3.1-9.3-9.3V13.7c0-6.2,3.1-9.3,9.3-9.3h4.1
		C166.7,4.5,169.8,7.6,169.8,13.7"/>
</g>
<path class="st0" d="M171.9,9.6v4.1h7.2v20.6h4.1V9.6H171.9z M184.2,9.6v24.7h4.1V13.7h7.2V9.6H184.2z M171.9,8.6h23.7V4.5h-23.7
	V8.6z"/>
<rect x="57.9" y="29.6" class="st0" width="4.7" height="4.7"/>
<g>
	<path class="st0" d="M135.1,14.8h-6.7v-1h6.7c0.7,0,1,0.2,1,0.5C136.1,14.6,135.8,14.8,135.1,14.8 M138.9,17.5
		c0.9-0.9,1.4-2,1.4-3.3c0-1.3-0.5-2.3-1.4-3.3c-0.9-0.9-1.8-1.4-2.8-1.4h-11v0.6v3.5v1v3.1v1h11C137,18.9,138,18.4,138.9,17.5"/>
	<path class="st0" d="M145.4,14.3c0-2.7-1-5-2.9-6.9c-1.9-1.9-4-2.9-6.4-2.9h-11v4.1h11c1.2,0,2.4,0.6,3.5,1.7
		c1.1,1.1,1.7,2.5,1.7,4c0.1,2.1-0.9,3.9-3,5.2c2,1.3,3,3,3,5.1c0,1.5-0.6,2.9-1.7,4c-1.1,1.1-2.3,1.7-3.5,1.7h-11v4.1h11
		c2.4,0,4.5-1,6.4-2.9c1.9-1.9,2.9-4.2,2.9-6.9c0-1.9-0.5-3.7-1.4-5.1C144.9,18,145.4,16.2,145.4,14.3"/>
	<path class="st0" d="M135.1,25.1h-6.7v-1h6.7c0.7,0,1,0.2,1,0.5C136.1,24.9,135.8,25.1,135.1,25.1 M138.9,27.8
		c0.9-0.9,1.4-2,1.4-3.3c0-1.3-0.5-2.4-1.4-3.3c-0.9-0.9-1.8-1.4-2.8-1.4h-11v0.5V24v1v3v1.2h11C137,29.2,138,28.7,138.9,27.8"/>
</g>
</svg>
