<svg width="489" height="489" xmlns="http://www.w3.org/2000/svg">

 <g>
  <title>background</title>
  <rect fill="none" id="canvas_background" height="402" width="582" y="-1" x="-1"/>
 </g>
 <g>
  <title>Layer 1</title>
  <g id="svg_1">
   <g id="svg_2">
    <path id="svg_3" d="m244.499997,0c-135.2,0 -244.5,109.3 -244.5,244.5s109.3,244.5 244.5,244.5s244.5,-109.3 244.5,-244.5s-109.3,-244.5 -244.5,-244.5zm0,448.4c-112.4,0 -203.9,-91.5 -203.9,-203.9s91.5,-203.9 203.9,-203.9s203.9,91.5 203.9,203.9s-91.5,203.9 -203.9,203.9z"/>
    <path stroke="null" id="svg_4" d="m346.292555,145.115853c-7.658937,-7.480649 -19.193481,-7.480649 -26.852418,0l-74.928398,73.184181l-74.836121,-73.094052c-7.658937,-7.480649 -19.193481,-7.480649 -26.852418,0s-7.658937,18.746687 0,26.227336l74.836121,73.094052l-74.836121,73.094052c-7.658937,7.480649 -7.935766,19.017072 0,26.227336c5.997963,5.407698 17.347954,9.373343 26.852418,0l74.836121,-73.094052l74.836121,73.094052c11.442268,10.545011 23.069088,3.785389 26.852418,0c7.658937,-7.480649 7.658937,-18.746687 0,-26.227336l-74.836121,-73.094052l74.836121,-73.094052c7.751214,-7.570777 7.751214,-18.836815 0.092276,-26.317464z"/>
   </g>
  </g>
  <g id="svg_5"/>
  <g id="svg_6"/>
  <g id="svg_7"/>
  <g id="svg_8"/>
  <g id="svg_9"/>
  <g id="svg_10"/>
  <g id="svg_11"/>
  <g id="svg_12"/>
  <g id="svg_13"/>
  <g id="svg_14"/>
  <g id="svg_15"/>
  <g id="svg_16"/>
  <g id="svg_17"/>
  <g id="svg_18"/>
  <g id="svg_19"/>
 </g>
</svg>