<?xml version="1.0" encoding="utf-8"?>
<!-- Generator: Adobe Illustrator 19.2.1, SVG Export Plug-In . SVG Version: 6.00 Build 0)  -->
<svg version="1.1" id="Layer_1" xmlns="http://www.w3.org/2000/svg" xmlns:xlink="http://www.w3.org/1999/xlink" x="0px" y="0px"
	 viewBox="0 0 32 32" style="enable-background:new 0 0 32 32;" xml:space="preserve">
<style type="text/css">
	.st0{fill:#FFFFFF;}
	.st1{fill:#3B5998;}
</style>
<path class="st0" d="M21.1,31.5l5.5,0c2.6,0,4.8-2.1,4.8-4.8l0-21.4c0-2.6-2.1-4.8-4.8-4.8l-21.4,0c-2.6,0-4.8,2.1-4.8,4.8l0,21.4
	c0,2.6,2.1,4.8,4.8,4.8l11,0L21.1,31.5z"/>
<path class="st1" d="M26.7,0.6l-21.4,0c-2.6,0-4.8,2.1-4.8,4.8l0,21.4c0,2.6,2.1,4.8,4.8,4.8l11,0V18.9H12v-4.2h4.3v-2.4
	c0-1.8,0.6-3.3,1.7-4.5c1.1-1.2,2.5-1.8,4.2-1.8h4.1v4.4h-4.1c-0.3,0-0.5,0.1-0.7,0.4c-0.2,0.3-0.3,0.6-0.3,1.1v2.9h5.1v4.2h-5.1
	v12.5l5.5,0c2.6,0,4.8-2.1,4.8-4.8l0-21.4C31.5,2.7,29.3,0.6,26.7,0.6z"/>
<path d="M59.3,18.9"/>
<path d="M55.3,10.3"/>
</svg>
