<?xml version="1.0" encoding="utf-8"?>
<!-- Generator: Adobe Illustrator 19.2.1, SVG Export Plug-In . SVG Version: 6.00 Build 0)  -->
<svg version="1.1" id="Layer_1" xmlns="http://www.w3.org/2000/svg" xmlns:xlink="http://www.w3.org/1999/xlink" x="0px" y="0px"
	 viewBox="0 0 32 32" style="enable-background:new 0 0 32 32;" xml:space="preserve">
<style type="text/css">
	.st0{fill:#FFFFFF;}
	.st1{fill:#CB2027;}
</style>
<path class="st0" d="M10,31.5H6.3c-1.6,0-3-0.6-4.1-1.7c-1.1-1.1-1.7-2.5-1.7-4.1V6.3c0-1.6,0.6-3,1.7-4.1C3.3,1,4.7,0.5,6.3,0.5
	c0,0,19.4,0,19.4,0c1.6,0,3,0.6,4.1,1.7c1.1,1.1,1.7,2.5,1.7,4.1v19.4c0,1.6-0.6,3-1.7,4.1c-1.1,1.1-2.5,1.7-4.1,1.7H11L10,31.5z"/>
<path class="st1" d="M25.7,0.5c1.6,0,3,0.6,4.1,1.7c1.1,1.1,1.7,2.5,1.7,4.1v19.4c0,1.6-0.6,3-1.7,4.1c-1.1,1.1-2.5,1.7-4.1,1.7H11
	c1.1-1.6,1.8-3,2.2-4.3c0.1-0.4,0.5-1.8,1.1-4.2c0.3,0.6,0.8,1,1.5,1.3c0.8,0.4,1.5,0.6,2.3,0.6c2.5,0,4.5-1,6-3
	c1.5-2,2.3-4.6,2.3-7.6c0-1.2-0.2-2.3-0.7-3.3c-0.4-1-1.1-2-1.9-2.8c-0.8-0.8-1.8-1.5-3.1-2c-1.1-0.5-2.5-0.7-4-0.7s-2.8,0.2-4,0.6
	c-1.2,0.3-2.2,0.9-3,1.6c-1,0.7-1.7,1.4-2.2,2.2c-0.6,0.8-1.1,1.7-1.3,2.6c-0.3,0.9-0.4,1.7-0.4,2.6c0,1.5,0.3,2.7,0.8,3.7
	c0.6,1,1.3,1.8,2.3,2.2c0.2,0,0.4,0,0.5,0c0.1,0,0.2-0.2,0.3-0.4l0.3-1.3c0.1-0.3,0.1-0.6-0.2-0.9c-0.7-0.8-1-1.8-1-3
	c0-2,0.7-3.8,2.1-5.2c1.3-1.4,3.1-2.1,5.5-2.1c1.9,0,3.5,0.5,4.7,1.6c1.1,1,1.7,2.5,1.7,4.3c0,2.3-0.4,4.2-1.3,5.8
	c-0.9,1.6-2.1,2.3-3.5,2.3c-0.8,0-1.4-0.3-1.9-0.9c-0.5-0.6-0.7-1.3-0.5-2.1c0,0,0.1-0.3,0.2-0.7c0.1-0.5,0.3-0.8,0.4-1.1
	c0-0.1,0.1-0.5,0.3-1c0.1-0.5,0.2-0.9,0.3-1.1c0.1-0.6,0.2-1.1,0.2-1.5c0-0.8-0.2-1.3-0.5-1.7c-0.4-0.4-0.9-0.6-1.6-0.6
	c-0.8,0-1.5,0.4-2.1,1.1c-0.6,0.8-0.9,1.7-0.9,2.8c0,0.8,0.2,1.6,0.5,2.5l-2,8.4c-0.3,1.4-0.3,3.1-0.1,5.1H6.3c-1.6,0-3-0.6-4.1-1.7
	c-1.1-1.1-1.7-2.5-1.7-4.1V6.3c0-1.6,0.6-3,1.7-4.1C3.3,1,4.7,0.5,6.3,0.5C6.3,0.5,25.7,0.5,25.7,0.5z"/>
</svg>
