<?xml version="1.0" encoding="utf-8"?>
<!-- Generator: Adobe Illustrator 19.2.1, SVG Export Plug-In . SVG Version: 6.00 Build 0)  -->
<svg version="1.1" id="Layer_1" xmlns="http://www.w3.org/2000/svg" xmlns:xlink="http://www.w3.org/1999/xlink" x="0px" y="0px"
	 viewBox="0 0 32 32" style="enable-background:new 0 0 32 32;" xml:space="preserve">
<style type="text/css">
	.st0{fill:#FFFFFF;}
	.st1{fill:#32506D;}
</style>
<path class="st0" d="M31.5,6.3v19.4c0,1.6-0.6,3-1.7,4.1c-1.1,1.1-2.5,1.7-4.1,1.7H6.3c-1.6,0-3-0.6-4.1-1.7s-1.7-2.5-1.7-4.1V6.3
	c0-1.6,0.6-3,1.7-4.1s2.5-1.7,4.1-1.7h19.4c1.6,0,3,0.6,4.1,1.7S31.5,4.7,31.5,6.3z"/>
<path class="st1" d="M31.5,6.3v19.4c0,1.6-0.6,3-1.7,4.1c-1.1,1.1-2.5,1.7-4.1,1.7H6.3c-1.6,0-3-0.6-4.1-1.7s-1.7-2.5-1.7-4.1V6.3
	c0-1.6,0.6-3,1.7-4.1s2.5-1.7,4.1-1.7h19.4c1.6,0,3,0.6,4.1,1.7S31.5,4.7,31.5,6.3z M23.2,26.4v-3.7c-1.1,0.8-2.2,1.1-3.5,1.1
	c-0.7,0-1.3-0.2-1.8-0.5c-0.4-0.2-0.7-0.5-0.9-0.9c-0.1-0.3-0.2-1.2-0.2-2.6v-6h5.6v-3.6h-5.6v-6h-3.3c-0.1,1.4-0.4,2.4-0.8,3
	c-0.5,0.9-1,1.5-1.6,2.1c-0.7,0.5-1.4,0.9-2.3,1.3v3.3h2.6v8.2c0,1.1,0.1,1.9,0.4,2.4c0.2,0.6,0.6,1.1,1.2,1.6
	c0.5,0.4,1.2,0.8,2.1,1.1c0.9,0.3,1.8,0.4,2.8,0.4c0.6,0,1.5-0.1,2.6-0.3C21.2,27.2,22.1,26.9,23.2,26.4z"/>
</svg>
