<?xml version="1.0" encoding="utf-8"?>
<!-- Generator: Adobe Illustrator 19.2.1, SVG Export Plug-In . SVG Version: 6.00 Build 0)  -->
<svg version="1.1" id="Layer_1" xmlns="http://www.w3.org/2000/svg" xmlns:xlink="http://www.w3.org/1999/xlink" x="0px" y="0px"
	 viewBox="0 0 32 32" style="enable-background:new 0 0 32 32;" xml:space="preserve">
<style type="text/css">
	.st0{fill:#FFFFFF;}
	.st1{fill:#00ACED;}
</style>
<path class="st0" d="M26.7,0.5l-21.5,0c-2.7,0-4.8,2.1-4.8,4.8l0,21.5c0,2.6,2.1,4.8,4.8,4.8l21.5,0c2.7,0,4.8-2.1,4.8-4.8l0-21.5
	C31.5,2.6,29.4,0.5,26.7,0.5z"/>
<path class="st1" d="M26.7,0.5l-21.5,0c-2.7,0-4.8,2.1-4.8,4.8l0,21.5c0,2.6,2.1,4.8,4.8,4.8l21.5,0c2.7,0,4.8-2.1,4.8-4.8l0-21.5
	C31.5,2.6,29.4,0.5,26.7,0.5z M24.3,11.7v0.6c0,1.3-0.2,2.4-0.5,3.4c-0.3,1.2-0.9,2.3-1.5,3.3c-0.6,1-1.4,1.9-2.4,2.8
	c-1,0.8-2.2,1.5-3.4,1.9c-1.3,0.5-2.7,0.7-4.3,0.7c-2.4,0-4.6-0.7-6.6-2c0.4,0.1,0.8,0.1,1,0.1c2,0,3.7-0.6,5.3-1.9
	c-0.9,0-1.8-0.3-2.5-0.8c-0.7-0.6-1.3-1.3-1.5-2.1c0.4,0.1,0.7,0.1,0.8,0.1c0.4,0,0.8-0.1,1.1-0.2c-1-0.2-1.8-0.7-2.5-1.4
	c-0.6-0.8-1-1.7-1-2.7v0C7,13.8,7.6,14,8.3,14c-0.6-0.4-1.1-0.9-1.4-1.5c-0.3-0.6-0.5-1.3-0.5-2C6.4,9.7,6.6,9,7,8.3
	c1.1,1.3,2.4,2.4,3.9,3.2c1.6,0.8,3.2,1.3,5,1.3c-0.1-0.4-0.1-0.7-0.1-1c0-1.2,0.4-2.2,1.3-3c0.8-0.8,1.9-1.3,3.1-1.3
	c1.2,0,2.3,0.4,3.1,1.3c1-0.2,1.9-0.5,2.7-1c-0.3,1-0.9,1.8-1.9,2.4c0.7-0.1,1.6-0.3,2.5-0.6C25.8,10.5,25.1,11.2,24.3,11.7z"/>
</svg>
