<?xml version="1.0" standalone="no"?>
<!DOCTYPE svg PUBLIC "-//W3C//DTD SVG 20010904//EN"
 "http://www.w3.org/TR/2001/REC-SVG-20010904/DTD/svg10.dtd">
<svg version="1.0" xmlns="http://www.w3.org/2000/svg"
 width="923.000000pt" height="931.000000pt" viewBox="0 0 923.000000 931.000000"
 preserveAspectRatio="xMidYMid meet">

<g transform="translate(0.000000,931.000000) scale(0.100000,-0.100000)"
fill="#000000" stroke="none">
<path d="M1170 9299 c-164 -21 -361 -101 -522 -211 -102 -69 -248 -210 -318
-306 -115 -157 -215 -360 -261 -527 -12 -44 -27 -99 -33 -121 l-13 -42 2187
-2223 c2366 -2408 2222 -2267 2353 -2289 73 -12 155 2 224 36 66 34 44 12
2522 2534 1051 1069 1907 1947 1903 1950 -5 3 -20 52 -35 108 -77 298 -238
572 -449 767 -165 152 -356 253 -588 313 -60 15 -335 16 -3485 18 -1881 1
-3449 -2 -3485 -7z"/>
<path d="M3 4460 c2 -2945 3 -3130 20 -3213 46 -228 140 -468 241 -618 l31
-46 1650 1660 c908 913 1651 1663 1653 1668 2 4 -787 813 -1754 1796 -966 983
-1776 1808 -1801 1833 l-43 45 3 -3125z"/>
<path d="M7436 5745 c-984 -1001 -1791 -1825 -1793 -1831 -3 -8 3277 -3314
3296 -3321 11 -5 79 111 131 220 60 126 101 247 132 390 l23 102 3 2705 c1
1488 1 2896 0 3130 l-3 425 -1789 -1820z"/>
<path d="M2205 1974 c-1571 -1581 -1655 -1668 -1639 -1685 34 -37 168 -122
269 -170 126 -59 260 -95 408 -109 77 -8 1148 -10 3457 -8 3040 4 3351 5 3416
20 183 42 359 121 494 222 l81 60 -128 130 c-71 72 -818 823 -1661 1670
l-1532 1539 -158 -154 c-172 -169 -236 -213 -367 -255 -109 -35 -251 -43 -364
-20 -181 37 -261 86 -457 278 -83 81 -153 148 -156 148 -4 0 -752 -750 -1663
-1666z"/>
</g>
</svg>
