<?xml version="1.0" encoding="utf-8"?>
<!-- Generator: Adobe Illustrator 18.1.0, SVG Export Plug-In . SVG Version: 6.00 Build 0)  -->
<svg version="1.1" id="Layer_1" xmlns="http://www.w3.org/2000/svg" xmlns:xlink="http://www.w3.org/1999/xlink" x="0px" y="0px"
	 viewBox="0 0 120.5 28.8" style="enable-background:new 0 0 120.5 28.8;" xml:space="preserve">
<style type="text/css">
	.st0{fill:#FFFFFF;}
</style>
<g>
	<path class="st0" d="M0,4.6V0.1h1.8c0.9,0,1.4,0.6,1.4,1.4S2.7,2.8,1.8,2.8H0.6v1.8H0z M2.7,1.4c0-0.5-0.4-0.9-0.9-0.9H0.6v1.7h1.2
		C2.3,2.3,2.7,2,2.7,1.4z"/>
	<path class="st0" d="M6.6,4.6L5.5,2.8H4.6v1.8H4V0.1h1.8c0.8,0,1.4,0.5,1.4,1.4c0,0.8-0.6,1.3-1.2,1.3l1.2,1.9H6.6z M6.7,1.4
		c0-0.5-0.4-0.9-0.9-0.9H4.6v1.7h1.2C6.3,2.3,6.7,2,6.7,1.4z"/>
	<path class="st0" d="M8.2,4.6V0.1h3v0.5H8.7v1.5h2.4v0.5H8.7v1.6h2.4v0.5H8.2z"/>
	<path class="st0" d="M11.8,4l0.3-0.4c0.3,0.3,0.8,0.7,1.4,0.7c0.8,0,1.1-0.4,1.1-0.8c0-1.2-2.7-0.5-2.7-2.1c0-0.8,0.7-1.3,1.6-1.3
		c0.7,0,1.2,0.2,1.6,0.6l-0.3,0.4c-0.3-0.4-0.8-0.5-1.3-0.5c-0.5,0-0.9,0.3-0.9,0.7c0,1,2.7,0.4,2.7,2.1c0,0.7-0.5,1.3-1.7,1.3
		C12.7,4.7,12.2,4.4,11.8,4z"/>
	<path class="st0" d="M16.1,4.6V0.1h3v0.5h-2.4v1.5H19v0.5h-2.4v1.6H19v0.5H16.1z"/>
	<path class="st0" d="M23.2,4.6L20.5,1v3.6h-0.6V0.1h0.6l2.6,3.6V0.1h0.6v4.6H23.2z"/>
	<path class="st0" d="M25.9,4.6V0.6h-1.4V0.1h3.5v0.5h-1.4v4.1H25.9z"/>
	<path class="st0" d="M28.7,4.6V0.1h3v0.5h-2.4v1.5h2.4v0.5h-2.4v1.6h2.4v0.5H28.7z"/>
	<path class="st0" d="M32.6,4.6V0.1h1.6c1.4,0,2.3,1,2.3,2.3c0,1.3-0.9,2.3-2.3,2.3H32.6z M35.9,2.4c0-1-0.6-1.8-1.8-1.8h-1v3.5h1
		C35.2,4.1,35.9,3.3,35.9,2.4z"/>
	<path class="st0" d="M39.1,4.6V0.1h2c0.8,0,1.3,0.5,1.3,1.2c0,0.6-0.4,1-0.8,1c0.5,0.1,0.9,0.6,0.9,1.1c0,0.7-0.5,1.2-1.3,1.2H39.1
		z M41.8,1.3c0-0.4-0.3-0.7-0.8-0.7h-1.4v1.5h1.4C41.6,2.1,41.8,1.7,41.8,1.3z M41.9,3.3c0-0.4-0.3-0.8-0.8-0.8h-1.4v1.6h1.4
		C41.6,4.1,41.9,3.8,41.9,3.3z"/>
	<path class="st0" d="M44.5,4.6V2.7l-1.8-2.6h0.7l1.4,2.1l1.4-2.1h0.7l-1.8,2.6v1.9H44.5z"/>
</g>
<g>
	<path class="st0" d="M4.8,11.3H0.1V9.7h11.1v1.6H6.6v12.3H4.8V11.3z"/>
	<path class="st0" d="M13.9,13.3c3.2,0,4.9,2.3,4.9,5.3c0,2.9-1.7,5.2-4.9,5.2c-3.2,0-4.9-2.3-4.9-5.2C9,15.6,10.7,13.3,13.9,13.3z
		 M13.9,22.4c1.7,0,3.1-1.4,3.1-3.8c0-2.4-1.4-3.8-3.1-3.8c-1.7,0-3.1,1.4-3.1,3.8C10.8,21,12.2,22.4,13.9,22.4z"/>
	<path class="st0" d="M24,25c-0.8,2-1.4,2.7-2.9,2.7c-0.4,0-0.8,0-1.1-0.2v-1.5c0.3,0.1,0.6,0.2,1,0.2c0.7,0,1-0.3,1.4-0.9l0.7-1.7
		l-4-10h1.9l2.9,8.2h0l2.8-8.2h1.7L24,25z"/>
	<path class="st0" d="M33.3,13.3c3.2,0,4.9,2.3,4.9,5.3c0,2.9-1.7,5.2-4.9,5.2c-3.2,0-4.9-2.3-4.9-5.2
		C28.4,15.6,30.1,13.3,33.3,13.3z M33.3,22.4c1.7,0,3.1-1.4,3.1-3.8c0-2.4-1.4-3.8-3.1-3.8c-1.7,0-3.1,1.4-3.1,3.8
		C30.2,21,31.6,22.4,33.3,22.4z"/>
	<path class="st0" d="M41.9,13.6h2V15h-2v6.2c0,0.8,0.2,0.9,1.2,0.9h0.8v1.5h-1.3c-1.7,0-2.4-0.3-2.4-2.2V15h-1.7v-1.5h1.7v-3h1.7
		V13.6z"/>
	<path class="st0" d="M54.3,23.6c-0.3,0.2-0.7,0.3-1.2,0.3c-0.9,0-1.4-0.5-1.4-1.6c-0.9,1.1-2.1,1.6-3.5,1.6c-1.8,0-3.3-0.8-3.3-2.8
		c0-2.3,1.7-2.8,3.4-3.1c1.8-0.3,3.4-0.2,3.4-1.5c0-1.4-1.2-1.7-2.2-1.7c-1.4,0-2.4,0.4-2.5,1.9h-1.7c0.1-2.5,2-3.4,4.3-3.4
		c1.8,0,3.8,0.4,3.8,2.8v5.2c0,0.8,0,1.1,0.5,1.1c0.1,0,0.3,0,0.5-0.1V23.6z M51.7,18.4c-0.6,0.5-1.9,0.5-3,0.7
		c-1.1,0.2-2,0.6-2,1.8c0,1.1,0.9,1.5,1.9,1.5c2.2,0,3.1-1.4,3.1-2.3V18.4z"/>
	<path class="st0" d="M69.2,14.4C69,13,67.7,12,66.1,12c-2.7,0-3.8,2.3-3.8,4.8c0,2.3,1,4.6,3.8,4.6c1.9,0,2.9-1.3,3.1-3.1h3
		c-0.3,3.5-2.7,5.7-6.1,5.7c-4.3,0-6.8-3.2-6.8-7.2c0-4.1,2.5-7.3,6.8-7.3c3,0,5.6,1.8,6,5H69.2z"/>
	<path class="st0" d="M78.3,13.3c3.2,0,5.2,2.1,5.2,5.3c0,3.2-2,5.3-5.2,5.3c-3.1,0-5.2-2.1-5.2-5.3C73.1,15.4,75.2,13.3,78.3,13.3z
		 M78.3,21.8c1.9,0,2.4-1.6,2.4-3.2c0-1.6-0.6-3.2-2.4-3.2c-1.9,0-2.4,1.6-2.4,3.2C75.9,20.2,76.4,21.8,78.3,21.8z"/>
	<path class="st0" d="M84.4,13.6h2.6v1.9h0c0.5-1.3,1.9-2.1,3.2-2.1c0.2,0,0.4,0,0.6,0.1V16c-0.3-0.1-0.7-0.1-1-0.1
		c-2,0-2.7,1.5-2.7,3.2v4.5h-2.8V13.6z"/>
	<path class="st0" d="M96.3,13.3c3.2,0,5.2,2.1,5.2,5.3c0,3.2-2,5.3-5.2,5.3c-3.1,0-5.2-2.1-5.2-5.3C91.1,15.4,93.2,13.3,96.3,13.3z
		 M96.3,21.8c1.9,0,2.4-1.6,2.4-3.2c0-1.6-0.6-3.2-2.4-3.2c-1.9,0-2.4,1.6-2.4,3.2C93.9,20.2,94.5,21.8,96.3,21.8z"/>
	<path class="st0" d="M102.6,9.7h2.8v13.9h-2.8V9.7z"/>
	<path class="st0" d="M106.9,9.7h2.8v13.9h-2.8V9.7z"/>
	<path class="st0" d="M111,16.7c0.2-2.6,2.5-3.4,4.7-3.4c2,0,4.4,0.4,4.4,2.9v5.2c0,0.9,0.1,1.8,0.3,2.2h-2.8
		c-0.1-0.3-0.2-0.6-0.2-1c-0.9,0.9-2.2,1.2-3.4,1.2c-1.9,0-3.4-1-3.4-3c0-2.3,1.7-2.8,3.4-3c1.7-0.3,3.3-0.2,3.3-1.3
		c0-1.2-0.8-1.4-1.8-1.4c-1,0-1.7,0.4-1.8,1.5H111z M117.4,18.7c-0.5,0.4-1.4,0.4-2.3,0.6c-0.9,0.2-1.6,0.5-1.6,1.5
		c0,1,0.8,1.3,1.7,1.3c2.2,0,2.2-1.7,2.2-2.3V18.7z"/>
</g>
</svg>
