<?xml version="1.0" encoding="utf-8"?>
<!-- Generator: Adobe Illustrator 18.1.0, SVG Export Plug-In . SVG Version: 6.00 Build 0)  -->
<svg version="1.1" id="Layer_1" xmlns="http://www.w3.org/2000/svg" xmlns:xlink="http://www.w3.org/1999/xlink" x="0px" y="0px"
	 viewBox="0 0 253.3 26.8" style="enable-background:new 0 0 253.3 26.8;" xml:space="preserve">
<style type="text/css">
	.st0{fill:#FFFFFF;}
</style>
<g>
	<path class="st0" d="M0.8,16.5V9.9h2.7c1.3,0,2.1,0.9,2.1,2c0,1.1-0.8,2-2.1,2H1.6v2.6H0.8z M4.7,11.9c0-0.8-0.5-1.3-1.3-1.3H1.6
		v2.5h1.7C4.1,13.1,4.7,12.6,4.7,11.9z"/>
	<path class="st0" d="M10.5,16.5l-1.7-2.6H7.5v2.6H6.6V9.9h2.7c1.2,0,2.1,0.8,2.1,2c0,1.2-0.8,1.9-1.7,1.9l1.8,2.7H10.5z M10.6,11.9
		c0-0.8-0.5-1.3-1.3-1.3H7.5v2.5h1.7C10,13.2,10.6,12.6,10.6,11.9z"/>
	<path class="st0" d="M12.7,16.5V9.9h4.4v0.7h-3.5v2.1H17v0.7h-3.5v2.3h3.5v0.7H12.7z"/>
	<path class="st0" d="M18,15.6l0.5-0.6c0.4,0.5,1.1,1,2.1,1c1.2,0,1.6-0.6,1.6-1.2c0-1.7-3.9-0.8-3.9-3.1c0-1.1,1-1.9,2.3-1.9
		c1,0,1.8,0.4,2.4,0.9l-0.5,0.6c-0.5-0.6-1.2-0.8-1.9-0.8c-0.8,0-1.4,0.4-1.4,1.1c0,1.5,3.9,0.6,3.9,3.1c0,1-0.7,2-2.5,2
		C19.4,16.7,18.6,16.2,18,15.6z"/>
	<path class="st0" d="M24.3,16.5V9.9h4.4v0.7h-3.5v2.1h3.5v0.7h-3.5v2.3h3.5v0.7H24.3z"/>
	<path class="st0" d="M34.7,16.5l-3.9-5.3v5.3H30V9.9h0.8l3.8,5.2V9.9h0.8v6.7H34.7z"/>
	<path class="st0" d="M38.7,16.5v-5.9h-2.1V9.9h5.1v0.7h-2.1v5.9H38.7z"/>
	<path class="st0" d="M42.8,16.5V9.9h4.4v0.7h-3.5v2.1h3.5v0.7h-3.5v2.3h3.5v0.7H42.8z"/>
	<path class="st0" d="M48.4,16.5V9.9h2.3c2.1,0,3.4,1.4,3.4,3.3c0,1.9-1.3,3.3-3.4,3.3H48.4z M53.3,13.2c0-1.4-0.9-2.6-2.6-2.6h-1.4
		v5.2h1.4C52.3,15.8,53.3,14.6,53.3,13.2z"/>
	<path class="st0" d="M58,16.5V9.9h3c1.2,0,1.9,0.7,1.9,1.7c0,0.8-0.6,1.4-1.2,1.5c0.7,0.1,1.3,0.8,1.3,1.6c0,1.1-0.7,1.8-1.9,1.8
		H58z M62,11.7c0-0.6-0.4-1.1-1.1-1.1h-2v2.1h2C61.6,12.8,62,12.3,62,11.7z M62.1,14.6c0-0.6-0.4-1.1-1.2-1.1h-2v2.3h2
		C61.7,15.8,62.1,15.4,62.1,14.6z"/>
	<path class="st0" d="M66,16.5v-2.8l-2.6-3.8h1l2.1,3.1l2.1-3.1h1l-2.6,3.8v2.8H66z"/>
</g>
<g>
	<path class="st0" d="M84,2.8h-6.8V0.5h16.2v2.3h-6.8v18H84V2.8z"/>
	<path class="st0" d="M97.3,5.7c4.7,0,7.1,3.4,7.1,7.7c0,4.3-2.5,7.7-7.1,7.7c-4.7,0-7.1-3.4-7.1-7.7C90.2,9.1,92.7,5.7,97.3,5.7z
		 M97.3,19c2.5,0,4.6-2,4.6-5.5c0-3.6-2-5.6-4.6-5.6s-4.6,2-4.6,5.6C92.8,17,94.8,19,97.3,19z"/>
	<path class="st0" d="M112.1,22.7c-1.1,2.9-2.1,3.9-4.3,3.9c-0.6,0-1.1-0.1-1.7-0.3v-2.2c0.5,0.1,0.9,0.3,1.4,0.3c1,0,1.5-0.5,2-1.3
		l1-2.5l-5.8-14.6h2.7l4.3,12h0.1l4.1-12h2.6L112.1,22.7z"/>
	<path class="st0" d="M125.7,5.7c4.7,0,7.1,3.4,7.1,7.7c0,4.3-2.5,7.7-7.1,7.7c-4.7,0-7.1-3.4-7.1-7.7
		C118.6,9.1,121.1,5.7,125.7,5.7z M125.7,19c2.5,0,4.6-2,4.6-5.5c0-3.6-2-5.6-4.6-5.6c-2.5,0-4.6,2-4.6,5.6
		C121.2,17,123.2,19,125.7,19z"/>
	<path class="st0" d="M138.4,6.1h2.9v2.1h-2.9v9.1c0,1.1,0.3,1.3,1.8,1.3h1.1v2.1h-1.8c-2.5,0-3.5-0.5-3.5-3.2V8.2h-2.5V6.1h2.5V1.7
		h2.4V6.1z"/>
	<path class="st0" d="M156.6,20.7c-0.4,0.3-1,0.4-1.7,0.4c-1.3,0-2-0.7-2-2.3c-1.3,1.6-3.1,2.3-5.2,2.3c-2.7,0-4.9-1.2-4.9-4.1
		c0-3.3,2.5-4,5-4.5c2.7-0.5,4.9-0.3,4.9-2.2c0-2.1-1.7-2.4-3.3-2.4c-2,0-3.6,0.6-3.7,2.8h-2.4c0.1-3.6,3-4.9,6.2-4.9
		c2.6,0,5.5,0.6,5.5,4v7.6c0,1.1,0,1.6,0.8,1.6c0.2,0,0.4,0,0.7-0.1V20.7z M152.6,13.2c-0.9,0.7-2.8,0.7-4.4,1c-1.6,0.3-3,0.9-3,2.6
		c0,1.6,1.4,2.2,2.8,2.2c3.2,0,4.5-2,4.5-3.3V13.2z"/>
	<path class="st0" d="M178.2,7.3c-0.3-2-2.2-3.6-4.4-3.6c-4,0-5.5,3.4-5.5,7c0,3.4,1.5,6.8,5.5,6.8c2.7,0,4.3-1.9,4.6-4.5h4.3
		c-0.5,5.1-4,8.3-8.9,8.3c-6.3,0-10-4.7-10-10.5c0-6,3.7-10.7,10-10.7c4.5,0,8.2,2.6,8.8,7.3H178.2z"/>
	<path class="st0" d="M191.6,5.7c4.6,0,7.6,3.1,7.6,7.8c0,4.7-3,7.7-7.6,7.7c-4.6,0-7.6-3.1-7.6-7.7C184,8.8,187,5.7,191.6,5.7z
		 M191.6,18.1c2.8,0,3.6-2.4,3.6-4.7c0-2.4-0.8-4.7-3.6-4.7c-2.7,0-3.6,2.4-3.6,4.7C188.1,15.8,188.9,18.1,191.6,18.1z"/>
	<path class="st0" d="M200.6,6.1h3.8v2.7h0.1c0.7-1.8,2.7-3.1,4.7-3.1c0.3,0,0.6,0.1,0.9,0.1v3.8c-0.4-0.1-1-0.1-1.5-0.1
		c-3,0-4,2.1-4,4.7v6.6h-4V6.1z"/>
	<path class="st0" d="M218,5.7c4.6,0,7.6,3.1,7.6,7.8c0,4.7-3,7.7-7.6,7.7c-4.6,0-7.6-3.1-7.6-7.7C210.4,8.8,213.4,5.7,218,5.7z
		 M218,18.1c2.8,0,3.6-2.4,3.6-4.7c0-2.4-0.8-4.7-3.6-4.7c-2.7,0-3.6,2.4-3.6,4.7C214.4,15.8,215.3,18.1,218,18.1z"/>
	<path class="st0" d="M227.2,0.5h4v20.3h-4V0.5z"/>
	<path class="st0" d="M233.5,0.5h4v20.3h-4V0.5z"/>
	<path class="st0" d="M239.5,10.6c0.2-3.8,3.6-4.9,6.9-4.9c2.9,0,6.5,0.7,6.5,4.2v7.6c0,1.3,0.1,2.7,0.5,3.3h-4.1
		c-0.1-0.5-0.3-0.9-0.3-1.4c-1.3,1.3-3.2,1.8-4.9,1.8c-2.8,0-5-1.4-5-4.4c0-3.3,2.5-4.1,5-4.5c2.5-0.4,4.8-0.3,4.8-1.9
		c0-1.7-1.2-2-2.6-2c-1.5,0-2.5,0.6-2.7,2.2H239.5z M248.8,13.6c-0.7,0.6-2.1,0.6-3.4,0.9c-1.3,0.3-2.4,0.7-2.4,2.2
		c0,1.5,1.2,1.9,2.5,1.9c3.2,0,3.3-2.5,3.3-3.4V13.6z"/>
</g>
</svg>
