<?xml version="1.0" encoding="utf-8"?>
<!-- Generator: Adobe Illustrator 18.1.0, SVG Export Plug-In . SVG Version: 6.00 Build 0)  -->
<svg version="1.1" id="Layer_1" xmlns="http://www.w3.org/2000/svg" xmlns:xlink="http://www.w3.org/1999/xlink" x="0px" y="0px"
	 viewBox="0 0 112.8 26.8" style="enable-background:new 0 0 112.8 26.8;" xml:space="preserve">
<style type="text/css">
	.st0{fill:#FFFFFF;}
</style>
<g>
	<path class="st0" d="M0,4.6V0.1h1.8c0.9,0,1.4,0.6,1.4,1.4S2.7,2.8,1.8,2.8H0.6v1.8H0z M2.7,1.4c0-0.5-0.4-0.9-0.9-0.9H0.6v1.7h1.2
		C2.3,2.3,2.7,2,2.7,1.4z"/>
	<path class="st0" d="M6.6,4.6L5.5,2.8H4.6v1.8H4V0.1h1.8c0.8,0,1.4,0.5,1.4,1.4c0,0.8-0.6,1.3-1.2,1.3l1.2,1.9H6.6z M6.7,1.4
		c0-0.5-0.4-0.9-0.9-0.9H4.6v1.7h1.2C6.3,2.3,6.7,2,6.7,1.4z"/>
	<path class="st0" d="M8.2,4.6V0.1h3v0.5H8.7v1.5h2.4v0.5H8.7v1.6h2.4v0.5H8.2z"/>
	<path class="st0" d="M11.8,4l0.3-0.4c0.3,0.3,0.8,0.7,1.4,0.7c0.8,0,1.1-0.4,1.1-0.8c0-1.2-2.7-0.5-2.7-2.1c0-0.8,0.7-1.3,1.6-1.3
		c0.7,0,1.2,0.2,1.6,0.6l-0.3,0.4c-0.3-0.4-0.8-0.5-1.3-0.5c-0.5,0-0.9,0.3-0.9,0.7c0,1,2.7,0.4,2.7,2.1c0,0.7-0.5,1.3-1.7,1.3
		C12.7,4.7,12.2,4.4,11.8,4z"/>
	<path class="st0" d="M16.1,4.6V0.1h3v0.5h-2.4v1.5H19v0.5h-2.4v1.6H19v0.5H16.1z"/>
	<path class="st0" d="M23.2,4.6L20.5,1v3.6h-0.6V0.1h0.6l2.6,3.6V0.1h0.6v4.6H23.2z"/>
	<path class="st0" d="M25.9,4.6V0.6h-1.4V0.1h3.5v0.5h-1.4v4.1H25.9z"/>
	<path class="st0" d="M28.7,4.6V0.1h3v0.5h-2.4v1.5h2.4v0.5h-2.4v1.6h2.4v0.5H28.7z"/>
	<path class="st0" d="M32.6,4.6V0.1h1.6c1.4,0,2.3,1,2.3,2.3c0,1.3-0.9,2.3-2.3,2.3H32.6z M35.9,2.4c0-1-0.6-1.8-1.8-1.8h-1v3.5h1
		C35.2,4.1,35.9,3.3,35.9,2.4z"/>
	<path class="st0" d="M39.1,4.6V0.1h2c0.8,0,1.3,0.5,1.3,1.2c0,0.6-0.4,1-0.8,1c0.5,0.1,0.9,0.6,0.9,1.1c0,0.7-0.5,1.2-1.3,1.2H39.1
		z M41.8,1.3c0-0.4-0.3-0.7-0.8-0.7h-1.4v1.5h1.4C41.6,2.1,41.8,1.7,41.8,1.3z M41.9,3.3c0-0.4-0.3-0.8-0.8-0.8h-1.4v1.6h1.4
		C41.6,4.1,41.9,3.8,41.9,3.3z"/>
	<path class="st0" d="M44.5,4.6V2.7l-1.8-2.6h0.7l1.4,2.1l1.4-2.1h0.7l-1.8,2.6v1.9H44.5z"/>
</g>
<g>
	<path class="st0" d="M4.4,11.4H0V9.9h10.5v1.5H6.1V23H4.4V11.4z"/>
	<path class="st0" d="M13,13.3c3,0,4.6,2.2,4.6,5c0,2.8-1.6,5-4.6,5c-3,0-4.6-2.2-4.6-5C8.4,15.5,10,13.3,13,13.3z M13,21.9
		c1.6,0,3-1.3,3-3.6c0-2.3-1.3-3.6-3-3.6s-3,1.3-3,3.6C10.1,20.6,11.4,21.9,13,21.9z"/>
	<path class="st0" d="M22.5,24.3c-0.7,1.9-1.4,2.5-2.8,2.5c-0.4,0-0.7,0-1.1-0.2v-1.4c0.3,0.1,0.6,0.2,0.9,0.2c0.6,0,1-0.3,1.3-0.9
		l0.6-1.6l-3.8-9.4h1.8l2.8,7.8h0l2.7-7.8h1.7L22.5,24.3z"/>
	<path class="st0" d="M31.4,13.3c3,0,4.6,2.2,4.6,5c0,2.8-1.6,5-4.6,5c-3,0-4.6-2.2-4.6-5C26.8,15.5,28.4,13.3,31.4,13.3z
		 M31.4,21.9c1.6,0,3-1.3,3-3.6c0-2.3-1.3-3.6-3-3.6c-1.6,0-3,1.3-3,3.6C28.4,20.6,29.7,21.9,31.4,21.9z"/>
	<path class="st0" d="M39.5,13.5h1.9v1.4h-1.9v5.9c0,0.7,0.2,0.8,1.2,0.8h0.7V23h-1.2C38.6,23,38,22.7,38,21v-6h-1.6v-1.4H38v-2.8
		h1.6V13.5z"/>
	<path class="st0" d="M51.3,23c-0.3,0.2-0.6,0.3-1.1,0.3c-0.8,0-1.3-0.4-1.3-1.5c-0.9,1-2,1.5-3.3,1.5c-1.7,0-3.1-0.8-3.1-2.7
		c0-2.2,1.6-2.6,3.2-2.9c1.7-0.3,3.2-0.2,3.2-1.4c0-1.4-1.1-1.6-2.1-1.6c-1.3,0-2.3,0.4-2.4,1.8h-1.6c0.1-2.4,1.9-3.2,4-3.2
		c1.7,0,3.6,0.4,3.6,2.6v4.9c0,0.7,0,1.1,0.5,1.1c0.1,0,0.3,0,0.5-0.1V23z M48.8,18.1c-0.6,0.4-1.8,0.5-2.8,0.6
		c-1,0.2-1.9,0.6-1.9,1.7c0,1,0.9,1.4,1.8,1.4c2.1,0,2.9-1.3,2.9-2.2V18.1z"/>
	<path class="st0" d="M65.3,14.3C65.1,13,63.9,12,62.4,12c-2.6,0-3.6,2.2-3.6,4.5c0,2.2,1,4.4,3.6,4.4c1.8,0,2.8-1.2,3-2.9h2.8
		c-0.3,3.3-2.6,5.4-5.8,5.4c-4.1,0-6.5-3-6.5-6.8c0-3.9,2.4-6.9,6.5-6.9c2.9,0,5.3,1.7,5.7,4.7H65.3z"/>
	<path class="st0" d="M69.2,16.5c0.1-2.4,2.3-3.2,4.5-3.2c1.9,0,4.2,0.4,4.2,2.7v4.9c0,0.9,0.1,1.7,0.3,2.1h-2.6
		c-0.1-0.3-0.2-0.6-0.2-0.9c-0.8,0.9-2,1.2-3.2,1.2c-1.8,0-3.2-0.9-3.2-2.8c0-2.2,1.6-2.7,3.2-2.9c1.6-0.2,3.1-0.2,3.1-1.2
		c0-1.1-0.8-1.3-1.7-1.3c-1,0-1.6,0.4-1.7,1.4H69.2z M75.2,18.4c-0.4,0.4-1.4,0.4-2.2,0.6c-0.8,0.2-1.5,0.4-1.5,1.4
		c0,1,0.8,1.2,1.6,1.2c2,0,2.1-1.6,2.1-2.2V18.4z"/>
	<path class="st0" d="M79.7,13.5h2.5v1.3h0c0.7-1,1.7-1.5,2.9-1.5c1.2,0,2.3,0.4,2.8,1.6c0.6-0.8,1.5-1.6,2.9-1.6
		c2,0,3.5,0.9,3.5,3.4V23h-2.6v-5.4c0-1.3-0.1-2.3-1.6-2.3c-1.5,0-1.7,1.2-1.7,2.4V23h-2.6v-5.3c0-1.1,0.1-2.4-1.6-2.4
		c-0.5,0-1.8,0.3-1.8,2.2V23h-2.6V13.5z"/>
	<path class="st0" d="M95.9,13.5h2.5v1.8h0c0.5-1.2,1.8-2,3-2c0.2,0,0.4,0,0.6,0.1v2.4c-0.2-0.1-0.6-0.1-0.9-0.1
		c-1.9,0-2.6,1.4-2.6,3.1V23h-2.6V13.5z"/>
	<path class="st0" d="M108.3,24.2c-0.6,1.5-1.5,2.2-3.3,2.2c-0.5,0-1.1,0-1.6-0.1v-2.2c0.5,0,1,0.1,1.5,0.1c0.9-0.1,1.2-1,0.9-1.8
		l-3.3-8.9h2.8l2.2,6.5h0l2.1-6.5h2.7L108.3,24.2z"/>
</g>
</svg>
