<?xml version="1.0" encoding="utf-8"?>
<!-- Generator: Adobe Illustrator 18.1.0, SVG Export Plug-In . SVG Version: 6.00 Build 0)  -->
<svg version="1.1" id="Layer_1" xmlns="http://www.w3.org/2000/svg" xmlns:xlink="http://www.w3.org/1999/xlink" x="0px" y="0px"
	 viewBox="0 0 308 18" style="enable-background:new 0 0 308 18;" xml:space="preserve">
<style type="text/css">
	.st0{fill:#FFFFFF;}
</style>
<g>
	<g>
		<path class="st0" d="M77.6,0h12.2v1.1h-5.5V18h-1.2V1.1h-5.5V0z"/>
		<path class="st0" d="M102.3,9.2h-8.7V18h-1.2V0h1.2v8h8.7V0h1.2v18h-1.2V9.2z"/>
		<path class="st0" d="M107.2,0h9.7v1.1h-8.5V8h7.8v1.1h-7.8v7.7h8.7V18h-9.9V0z"/>
		<path class="st0" d="M121.5,0h9.1c1.5,0,2.8,1.3,2.8,2.8v4.1c0,0.7-0.5,1.5-1.4,1.8c0.7,0.1,1.5,0.8,1.5,1.8v4.7
			c0,1.5-1.2,2.8-2.8,2.8h-9.2V0z M129.3,7.2c0.2,0,0.2-0.1,0.2-0.2V3.8c0-0.2-0.1-0.3-0.3-0.3h-3.9v3.7H129.3z M125.3,14.5h4
			c0.2,0,0.3-0.1,0.3-0.3v-3.5c0-0.2-0.1-0.3-0.3-0.3h-4V14.5z"/>
		<path class="st0" d="M145.8,18h-6.5c-1.6,0-2.9-1.3-2.9-3V3c0-1.6,1.3-3,2.9-3h6.5c1.6,0,2.9,1.3,2.9,3v12
			C148.7,16.6,147.4,18,145.8,18z M144.6,3.6h-4.1c-0.2,0-0.3,0.1-0.3,0.3v10.3c0,0.2,0.1,0.3,0.3,0.3h4.1c0.2,0,0.3-0.1,0.3-0.3
			V3.8C144.9,3.7,144.8,3.6,144.6,3.6z"/>
		<path class="st0" d="M151.8,0h3.8v14.4h7V18h-10.9V0z"/>
		<path class="st0" d="M174.3,0c1.6,0,2.9,1.3,2.9,3v12c0,1.6-1.3,3-2.9,3h-9.1V0H174.3z M169,3.6v10.8h4.1c0.2,0,0.3-0.1,0.3-0.3
			V3.8c0-0.2-0.1-0.3-0.3-0.3H169z"/>
		<path class="st0" d="M188,1.1h-3.5c-1.3,0-1.9,0.7-1.9,2v1.8h-1.1V3c0-1.8,1.2-3,2.9-3h3.8c1.8,0,2.9,1.2,2.9,3v3.3
			c0,1.6-0.7,2.1-2.4,2.8c-1.6,0.6-2.4,0.9-4.1,1.5c-1.3,0.5-1.9,0.8-1.9,2v4.2h8.6V18h-9.8v-5.5c0-1.6,1.1-2.3,2.7-2.9
			c1.7-0.6,2.4-0.9,4-1.4c1.5-0.5,1.8-0.8,1.8-2V3.1C189.9,1.8,189.2,1.1,188,1.1z"/>
		<path class="st0" d="M204.4,15c0,1.8-1.2,3-2.9,3h-4.2c-1.8,0-2.9-1.2-2.9-3V3c0-1.8,1.2-3,2.9-3h4.2c1.8,0,2.9,1.2,2.9,3V15z
			 M201.3,1.1h-3.8c-1.3,0-1.9,0.7-1.9,2v11.8c0,1.3,0.7,2,1.9,2h3.8c1.3,0,1.9-0.7,1.9-2V3.1C203.2,1.8,202.6,1.1,201.3,1.1z"/>
		<path class="st0" d="M212.8,0v18h-1.2V1.2l-5.2,1.8V1.8l5.2-1.8H212.8z"/>
		<path class="st0" d="M217,11.1V0h9.3v1.1h-8.1v7c0.5-0.3,1.1-0.5,1.8-0.7c0.9-0.2,2.3-0.5,3.7-0.5c1.8,0,2.9,1.2,2.9,3v5
			c0,1.8-1.2,3-2.9,3h-3.8c-1.8,0-2.9-1.2-2.9-3v-0.8h1.1v0.7c0,1.3,0.7,2,1.9,2h3.5c1.3,0,1.9-0.7,1.9-2V10c0-1.3-0.7-2-1.9-2
			c-1.1,0-2.5,0.3-3.4,0.5c-1.2,0.3-1.9,0.7-1.9,2v0.6H217z"/>
	</g>
	<g>
		<g>
			<path class="st0" d="M242.7,11.9V15c0,1.6-1.3,3-3,3h-6.2c-1.6,0-3-1.3-3-3V3c0-1.6,1.3-3,3-3h6.2c1.6,0,3,1.3,3,3v2.7l-3.8,0.6
				V3.8c0-0.2-0.1-0.3-0.3-0.3h-3.8c-0.2,0-0.3,0.1-0.3,0.3v10.3c0,0.2,0.1,0.3,0.3,0.3h3.8c0.2,0,0.3-0.1,0.3-0.3v-2.9L242.7,11.9z
				"/>
			<path class="st0" d="M259.2,18h-4l-1.1-3.6h-5.5l-1.1,3.6h-4l5.9-18h3.9L259.2,18z M249.7,11h3.2l-1.6-6L249.7,11z"/>
			<path class="st0" d="M264.6,8.5V18h-3.8V0h3.8l4.5,10.8L273.6,0h3.8v18h-3.8V8.5l-2.9,6.7h-3.3L264.6,8.5z"/>
			<path class="st0" d="M286.5,11.4h-2.7V18h-3.9V0h10c1.6,0,3,1.3,3,3v5.4c0,1.4-0.9,2.5-2.1,2.9L294,18h-4.3L286.5,11.4z
				 M283.9,3.6v4.2h4.9c0.2,0,0.3-0.1,0.3-0.3V3.8c0-0.2-0.1-0.3-0.3-0.3H283.9z"/>
			<path class="st0" d="M300.8,7.5l3-7.5h4.1l-5.2,11.9V18h-3.9v-6.1L293.7,0h4.1L300.8,7.5z"/>
		</g>
	</g>
</g>
<g>
	<path class="st0" d="M0.8,11.9V5.2h2.7c1.3,0,2.1,0.9,2.1,2c0,1.1-0.8,2-2.1,2H1.6v2.6H0.8z M4.7,7.2c0-0.8-0.5-1.3-1.3-1.3H1.6
		v2.5h1.7C4.1,8.5,4.7,8,4.7,7.2z"/>
	<path class="st0" d="M10.5,11.9L8.8,9.2H7.5v2.6H6.6V5.2h2.7c1.2,0,2.1,0.8,2.1,2c0,1.2-0.8,1.9-1.7,1.9l1.8,2.7H10.5z M10.6,7.2
		c0-0.8-0.5-1.3-1.3-1.3H7.5v2.5h1.7C10,8.5,10.6,8,10.6,7.2z"/>
	<path class="st0" d="M12.7,11.9V5.2h4.4v0.7h-3.5v2.1H17v0.7h-3.5v2.3h3.5v0.7H12.7z"/>
	<path class="st0" d="M18,10.9l0.5-0.6c0.4,0.5,1.1,1,2.1,1c1.2,0,1.6-0.6,1.6-1.2c0-1.7-3.9-0.8-3.9-3.1c0-1.1,1-1.9,2.3-1.9
		c1,0,1.8,0.4,2.4,0.9l-0.5,0.6c-0.5-0.6-1.2-0.8-1.9-0.8c-0.8,0-1.4,0.4-1.4,1.1c0,1.5,3.9,0.6,3.9,3.1c0,1-0.7,2-2.5,2
		C19.4,12,18.6,11.6,18,10.9z"/>
	<path class="st0" d="M24.3,11.9V5.2h4.4v0.7h-3.5v2.1h3.5v0.7h-3.5v2.3h3.5v0.7H24.3z"/>
	<path class="st0" d="M34.7,11.9l-3.9-5.3v5.3H30V5.2h0.8l3.8,5.2V5.2h0.8v6.7H34.7z"/>
	<path class="st0" d="M38.7,11.9V5.9h-2.1V5.2h5.1v0.7h-2.1v5.9H38.7z"/>
	<path class="st0" d="M42.8,11.9V5.2h4.4v0.7h-3.5v2.1h3.5v0.7h-3.5v2.3h3.5v0.7H42.8z"/>
	<path class="st0" d="M48.4,11.9V5.2h2.3c2.1,0,3.4,1.4,3.4,3.3c0,1.9-1.3,3.3-3.4,3.3H48.4z M53.3,8.5c0-1.4-0.9-2.6-2.6-2.6h-1.4
		v5.2h1.4C52.3,11.1,53.3,10,53.3,8.5z"/>
	<path class="st0" d="M58,11.9V5.2h3c1.2,0,1.9,0.7,1.9,1.7c0,0.8-0.6,1.4-1.2,1.5c0.7,0.1,1.3,0.8,1.3,1.6c0,1.1-0.7,1.8-1.9,1.8
		H58z M62,7c0-0.6-0.4-1.1-1.1-1.1h-2v2.1h2C61.6,8.1,62,7.6,62,7z M62.1,10c0-0.6-0.4-1.1-1.2-1.1h-2v2.3h2
		C61.7,11.1,62.1,10.7,62.1,10z"/>
	<path class="st0" d="M66,11.9V9.1l-2.6-3.8h1l2.1,3.1l2.1-3.1h1l-2.6,3.8v2.8H66z"/>
</g>
</svg>
