<?xml version="1.0" encoding="utf-8"?>
<!-- Generator: Adobe Illustrator 18.1.0, SVG Export Plug-In . SVG Version: 6.00 Build 0)  -->
<svg version="1.1" id="Layer_1" xmlns="http://www.w3.org/2000/svg" xmlns:xlink="http://www.w3.org/1999/xlink" x="0px" y="0px"
	 viewBox="0 0 136 40" style="enable-background:new 0 0 136 40;" xml:space="preserve">
<style type="text/css">
	.st0{fill:#FFFFFF;}
	.st1{fill:url(#SVGID_1_);}
	.st2{fill:#F1F1F2;}
</style>
<g>
	<path class="st0" d="M2.7,39.2C1.1,39.2,0,38,0,36.4h1.3c0,0.9,0.5,1.6,1.4,1.6c0.9,0,1.4-0.6,1.4-1.5c0-0.9-0.7-1.2-1.4-1.5
		c-1.4-0.5-2.5-0.9-2.5-2.7C0.2,31,1.4,30,2.7,30c1.5,0,2.5,1,2.5,2.5H4c0-0.8-0.5-1.3-1.2-1.3c-0.6,0-1.2,0.6-1.2,1.2
		c0,1.9,3.9,0.8,3.9,4.1C5.4,38.1,4.3,39.2,2.7,39.2z"/>
	<path class="st0" d="M9.2,35.5H7.9V39H6.6v-8.9h2.6c1.8,0,3.1,0.8,3.1,2.7C12.3,34.7,10.9,35.5,9.2,35.5z M9.2,31.3H7.9v3h1.3
		c1,0,1.8-0.4,1.8-1.5C11,31.7,10.2,31.3,9.2,31.3z"/>
	<path class="st0" d="M17.8,39.2c-2.5,0-4.6-2.1-4.6-4.6c0-2.6,2.1-4.6,4.6-4.6c2.6,0,4.6,2.1,4.6,4.6
		C22.4,37.1,20.4,39.2,17.8,39.2z M17.8,31.1c-1.4,0-2.5,0.7-3,2c-0.2,0.4-0.3,0.9-0.3,1.4c0,0.5,0.1,1,0.3,1.4c0.6,1.2,1.6,2,3,2
		c1.5,0,2.6-0.8,3.1-2.2c0.1-0.4,0.2-0.8,0.2-1.2C21.1,32.7,19.8,31.1,17.8,31.1z"/>
	<path class="st0" d="M23.9,39v-8.9h1.3V39H23.9z"/>
	<path class="st0" d="M27.1,39v-8.9h1.3v7.7h3.1V39H27.1z"/>
	<path class="st0" d="M32.3,39v-8.9h4.8v1.2h-3.5v2.6h3.5v1.2h-3.5v2.7h3.5V39H32.3z"/>
	<path class="st0" d="M42.9,35.5c-0.3,0.1-0.6,0.2-0.9,0.2l2.5,3.3h-1.6L40,34.9h0V39h-1.3v-8.9h2.7c0.8,0,1.7,0.1,2.4,0.7
		c0.6,0.5,0.8,1.3,0.8,2.1C44.6,34.2,44.1,35.1,42.9,35.5z M41.3,31.3H40v3.4h0.9c1.2,0,2.4-0.3,2.4-1.7
		C43.3,31.8,42.4,31.3,41.3,31.3z"/>
	<path class="st0" d="M55.2,39l-1-2.6H51L50,39h-1.4l3.4-8.9h1.2l3.4,8.9H55.2z M52.6,31.8L52.6,31.8l-1.2,3.4h2.3L52.6,31.8z"/>
	<path class="st0" d="M57.7,39v-8.9H59v7.7h3.1V39H57.7z"/>
	<path class="st0" d="M63,39v-8.9h4.8v1.2h-3.5v2.6h3.5v1.2h-3.5v2.7h3.5V39H63z"/>
	<path class="st0" d="M73.5,35.5c-0.3,0.1-0.6,0.2-0.9,0.2l2.5,3.3h-1.6l-2.9-4.1h0V39h-1.3v-8.9H72c0.8,0,1.7,0.1,2.4,0.7
		c0.6,0.5,0.8,1.3,0.8,2.1C75.2,34.2,74.7,35.1,73.5,35.5z M72,31.3h-1.4v3.4h0.9c1.2,0,2.4-0.3,2.4-1.7C73.9,31.8,73,31.3,72,31.3z
		"/>
	<path class="st0" d="M78.9,31.3V39h-1.3v-7.7h-1.7v-1.2h4.7v1.2H78.9z"/>
	<path class="st0" d="M81.5,33.8v-1.5h1.2v1.5H81.5z M81.5,39v-1.5h1.2V39H81.5z"/>
	<path class="st0" d="M96.5,39v-7.5h0l-3,7.5h-0.8l-3-7.5h0V39h-1.3v-8.9h2l2.7,6.8l2.7-6.8h2V39H96.5z"/>
	<path class="st0" d="M99.6,39v-8.9h4.8v1.2h-3.5v2.6h3.5v1.2h-3.5v2.7h3.5V39H99.6z"/>
	<path class="st0" d="M112.2,37.7c-1,1-2.1,1.3-3.5,1.3h-2.8v-8.9h2.9c1.4,0,2.8,0.4,3.6,1.6c0.6,0.8,0.9,1.8,0.9,2.8
		C113.3,35.6,112.9,37,112.2,37.7z M111.7,33.2c-0.5-1.3-1.6-1.9-3-1.9h-1.6v6.5h1.5c2,0,3.3-1.2,3.3-3.2
		C112,34.1,111.9,33.7,111.7,33.2z"/>
	<path class="st0" d="M114.9,39v-8.9h1.3V39H114.9z"/>
	<path class="st0" d="M123.1,38.4c-0.6,0.5-1.3,0.8-2.1,0.8c-0.8,0-1.5-0.3-2.1-0.8c-0.7-0.6-0.9-1.4-0.9-2.3v-6h1.3v6
		c0,1.1,0.6,1.9,1.7,1.9c1.1,0,1.7-0.8,1.7-1.9v-6h1.3v6C124,37,123.7,37.8,123.1,38.4z"/>
	<path class="st0" d="M134,39v-7.5h0l-3,7.5h-0.8l-3-7.5h0V39h-1.3v-8.9h2l2.7,6.8l2.7-6.8h2V39H134z"/>
</g>
<g>
	<g>
		<linearGradient id="SVGID_1_" gradientUnits="userSpaceOnUse" x1="44.1538" y1="11.923" x2="91.8462" y2="11.923">
			<stop  offset="0" style="stop-color:#2B303F"/>
			<stop  offset="1" style="stop-color:#79CDD8"/>
		</linearGradient>
		<path class="st1" d="M91.8,23.8c0-7.2-3.2-13.6-8.2-18C79.5,2.2,74,0,68,0c-5.8,0-11,2-15.2,5.5c-5.3,4.4-8.7,11-8.7,18.4h4.2
			c0-6.1,2.8-11.5,7.1-15.1c3.4-2.8,7.8-4.5,12.5-4.5c5.1,0,9.8,2,13.3,5.2c3.9,3.6,6.3,8.7,6.3,14.4H91.8z"/>
	</g>
	<path class="st2" d="M75.4,13.8l1.1-8.2l-2.8,1.5c-2,1-4.1,2.2-6.4,3.5c-2.3,1.4-3.7,2.5-4.3,3.3c-0.5,0.7-0.8,1.6-1.1,2.5
		c-0.4,2.6,0.5,4.7,2.6,6.2c0.7,0.5,1.6,0.8,2.5,1.1c2.6,0.4,4.7-0.5,6.2-2.6C73.9,20.1,74.6,17.6,75.4,13.8z M70.2,21.1
		c-1.6,1-3.1,0.9-4.6-0.1c-0.4-0.3-0.8-0.7-1.1-1.2c-1-1.6-0.9-3.1,0.1-4.6c0.3-0.4,0.7-0.8,1.2-1.1c1.6-1,3.1-0.9,4.6,0.1
		c0.4,0.3,0.8,0.7,1.1,1.2c1,1.6,0.9,3.1-0.1,4.6C71.1,20.4,70.7,20.8,70.2,21.1z"/>
</g>
</svg>
