<?xml version="1.0" encoding="utf-8"?>
<!-- Generator: Adobe Illustrator 18.1.0, SVG Export Plug-In . SVG Version: 6.00 Build 0)  -->
<svg version="1.1" id="Layer_1" xmlns="http://www.w3.org/2000/svg" xmlns:xlink="http://www.w3.org/1999/xlink" x="0px" y="0px"
	 viewBox="0 0 120 40" style="enable-background:new 0 0 120 40;" xml:space="preserve">
<style type="text/css">
	.st0{fill:url(#SVGID_1_);}
	.st1{fill:#F1F1F2;}
	.st2{fill:#FFFFFF;}
</style>
<g>
	<g>
		<linearGradient id="SVGID_1_" gradientUnits="userSpaceOnUse" x1="37.1447" y1="11.923" x2="84.8372" y2="11.923">
			<stop  offset="0" style="stop-color:#2B303F"/>
			<stop  offset="1" style="stop-color:#79CDD8"/>
		</linearGradient>
		<path class="st0" d="M84.8,23.8c0-7.2-3.2-13.6-8.2-18C72.5,2.2,67,0,61,0c-5.8,0-11,2-15.2,5.5c-5.3,4.4-8.7,11-8.7,18.4h4.2
			c0-6.1,2.8-11.5,7.1-15.1c3.4-2.8,7.8-4.5,12.5-4.5c5.1,0,9.8,2,13.3,5.2c3.9,3.6,6.3,8.7,6.3,14.4H84.8z"/>
	</g>
	<path class="st1" d="M67.6,22.6l7.8-2.7L72.8,18c-1.8-1.3-3.8-2.7-6.1-4.1c-2.3-1.4-3.9-2.2-4.9-2.3c-0.9-0.1-1.8,0-2.7,0.2
		c-2.5,0.9-3.9,2.6-4.3,5.2c-0.1,0.9,0,1.8,0.2,2.7c0.9,2.5,2.6,3.9,5.2,4.3C61.4,24.2,63.9,23.7,67.6,22.6z M58.8,21.4
		c-1.6-1-2.2-2.3-2-4.1c0.1-0.5,0.3-1.1,0.6-1.6c1-1.6,2.3-2.2,4.1-2c0.5,0.1,1.1,0.3,1.6,0.6c1.6,1,2.2,2.3,2,4.1
		c-0.1,0.5-0.3,1.1-0.6,1.6c-1,1.6-2.3,2.2-4.1,2C59.8,21.8,59.3,21.7,58.8,21.4z"/>
</g>
<g>
	<path class="st2" d="M3,39.2c-1.6,0-2.7-1.2-2.7-2.8h1.3C1.5,37.2,2,38,3,38c0.9,0,1.4-0.6,1.4-1.5c0-0.9-0.7-1.2-1.4-1.5
		c-1.4-0.5-2.5-0.9-2.5-2.7C0.5,31,1.6,30,3,30c1.5,0,2.5,1,2.5,2.5H4.2c0-0.8-0.5-1.3-1.2-1.3c-0.6,0-1.2,0.6-1.2,1.2
		c0,1.9,3.9,0.8,3.9,4.1C5.7,38.1,4.5,39.2,3,39.2z"/>
	<path class="st2" d="M9.6,35.5H8.3V39H7v-8.9h2.6c1.8,0,3.1,0.8,3.1,2.7C12.7,34.7,11.3,35.5,9.6,35.5z M9.6,31.3H8.3v3h1.3
		c1,0,1.8-0.4,1.8-1.5C11.4,31.7,10.5,31.3,9.6,31.3z"/>
	<path class="st2" d="M18.3,39.2c-2.5,0-4.6-2.1-4.6-4.6c0-2.6,2.1-4.6,4.6-4.6c2.6,0,4.6,2.1,4.6,4.6
		C22.9,37.1,20.9,39.2,18.3,39.2z M18.3,31.1c-1.4,0-2.5,0.7-3,2c-0.2,0.4-0.3,0.9-0.3,1.4c0,0.5,0.1,1,0.3,1.4c0.6,1.2,1.6,2,3,2
		c1.5,0,2.6-0.8,3.1-2.2c0.1-0.4,0.2-0.8,0.2-1.2C21.7,32.7,20.3,31.1,18.3,31.1z"/>
	<path class="st2" d="M24.5,39v-8.9h1.3V39H24.5z"/>
	<path class="st2" d="M27.9,39v-8.9h1.3v7.7h3.1V39H27.9z"/>
	<path class="st2" d="M33.2,39v-8.9H38v1.2h-3.5v2.6H38v1.2h-3.5v2.7H38V39H33.2z"/>
	<path class="st2" d="M43.9,35.5c-0.3,0.1-0.6,0.2-0.9,0.2l2.5,3.3h-1.6L41,34.9h0V39h-1.3v-8.9h2.7c0.8,0,1.7,0.1,2.4,0.7
		c0.6,0.5,0.8,1.3,0.8,2.1C45.6,34.2,45.1,35.1,43.9,35.5z M42.4,31.3H41v3.4h0.9c1.2,0,2.4-0.3,2.4-1.7
		C44.3,31.8,43.4,31.3,42.4,31.3z"/>
	<path class="st2" d="M56.5,39l-1-2.6h-3.2l-1,2.6h-1.4l3.4-8.9h1.2l3.4,8.9H56.5z M53.9,31.8L53.9,31.8l-1.2,3.4H55L53.9,31.8z"/>
	<path class="st2" d="M59.2,39v-8.9h1.3v7.7h3.1V39H59.2z"/>
	<path class="st2" d="M64.5,39v-8.9h4.8v1.2h-3.5v2.6h3.5v1.2h-3.5v2.7h3.5V39H64.5z"/>
	<path class="st2" d="M75.2,35.5c-0.3,0.1-0.6,0.2-0.9,0.2l2.5,3.3h-1.6l-2.9-4.1h0V39H71v-8.9h2.7c0.8,0,1.7,0.1,2.4,0.7
		c0.6,0.5,0.8,1.3,0.8,2.1C76.9,34.2,76.4,35.1,75.2,35.5z M73.7,31.3h-1.4v3.4h0.9c1.2,0,2.4-0.3,2.4-1.7
		C75.6,31.8,74.7,31.3,73.7,31.3z"/>
	<path class="st2" d="M80.8,31.3V39h-1.3v-7.7h-1.7v-1.2h4.7v1.2H80.8z"/>
	<path class="st2" d="M83.5,33.8v-1.5h1.2v1.5H83.5z M83.5,39v-1.5h1.2V39H83.5z"/>
	<path class="st2" d="M95.6,39v-3.9h-3.7V39h-1.3v-8.9h1.3V34h3.7v-3.8h1.3V39H95.6z"/>
	<path class="st2" d="M98.9,39v-8.9h1.3V39H98.9z"/>
	<path class="st2" d="M108.2,38.7c-0.6,0.3-1.3,0.4-1.9,0.4c-2.5,0-4.5-2.1-4.5-4.6c0-2.5,2-4.6,4.5-4.6c1.7,0,3.2,0.9,4,2.4h-1.5
		c-0.7-0.7-1.4-1.2-2.4-1.2c-1.9,0-3.3,1.6-3.3,3.4c0,1.8,1.5,3.4,3.3,3.4c1.4,0,2.6-0.9,3.1-2.2h-4.1v-1.2h5.6
		C110.8,36.4,109.9,38,108.2,38.7z"/>
	<path class="st2" d="M117.3,39v-3.9h-3.7V39h-1.3v-8.9h1.3V34h3.7v-3.8h1.3V39H117.3z"/>
</g>
</svg>
