<?xml version="1.0" encoding="utf-8"?>
<!-- Generator: Adobe Illustrator 18.1.0, SVG Export Plug-In . SVG Version: 6.00 Build 0)  -->
<svg version="1.1" id="Layer_2" xmlns="http://www.w3.org/2000/svg" xmlns:xlink="http://www.w3.org/1999/xlink" x="0px" y="0px"
	 viewBox="0 0 150 40" style="enable-background:new 0 0 150 40;" xml:space="preserve">
<style type="text/css">
	.st0{fill:#FFFFFF;}
	.st1{fill:url(#SVGID_1_);}
	.st2{fill:#F1F1F2;}
</style>
<g>
	<path class="st0" d="M2.8,39.1c-1.6,0-2.7-1.2-2.7-2.8h1.3c0,0.9,0.5,1.6,1.4,1.6c0.9,0,1.4-0.6,1.4-1.5c0-0.9-0.7-1.2-1.4-1.5
		c-1.4-0.5-2.5-0.9-2.5-2.7c0-1.4,1.1-2.4,2.5-2.4c1.5,0,2.5,1,2.5,2.5H4.1c0-0.8-0.5-1.3-1.2-1.3c-0.6,0-1.2,0.6-1.2,1.2
		c0,1.9,3.9,0.8,3.9,4.1C5.5,38,4.4,39.1,2.8,39.1z"/>
	<path class="st0" d="M9.3,35.4H8v3.5H6.7V30h2.6c1.8,0,3.1,0.8,3.1,2.7C12.4,34.6,11,35.4,9.3,35.4z M9.3,31.2H8v3h1.3
		c1,0,1.8-0.4,1.8-1.5C11.1,31.6,10.3,31.2,9.3,31.2z"/>
	<path class="st0" d="M17.9,39.1c-2.5,0-4.6-2.1-4.6-4.6c0-2.6,2.1-4.6,4.6-4.6c2.6,0,4.6,2.1,4.6,4.6C22.5,37,20.4,39.1,17.9,39.1z
		 M17.9,31c-1.4,0-2.5,0.7-3,2c-0.2,0.4-0.3,0.9-0.3,1.4c0,0.5,0.1,1,0.3,1.4c0.6,1.2,1.6,2,3,2c1.5,0,2.6-0.8,3.1-2.2
		c0.1-0.4,0.2-0.8,0.2-1.2C21.2,32.6,19.8,31,17.9,31z"/>
	<path class="st0" d="M24,38.9V30h1.3v8.9H24z"/>
	<path class="st0" d="M27.2,38.9V30h1.3v7.7h3.1v1.2H27.2z"/>
	<path class="st0" d="M32.4,38.9V30h4.8v1.2h-3.5v2.6h3.5V35h-3.5v2.7h3.5v1.2H32.4z"/>
	<path class="st0" d="M43,35.4c-0.3,0.1-0.6,0.2-0.9,0.2l2.5,3.3H43l-2.9-4.1h0v4.1h-1.3V30h2.7c0.8,0,1.7,0.1,2.4,0.7
		c0.6,0.5,0.8,1.3,0.8,2.1C44.7,34.1,44.2,35,43,35.4z M41.4,31.2h-1.4v3.4h0.9c1.2,0,2.4-0.3,2.4-1.7
		C43.4,31.7,42.5,31.2,41.4,31.2z"/>
	<path class="st0" d="M55.3,38.9l-1-2.6h-3.2l-1,2.6h-1.4l3.4-8.9h1.2l3.4,8.9H55.3z M52.7,31.7L52.7,31.7l-1.2,3.4h2.3L52.7,31.7z"
		/>
	<path class="st0" d="M57.8,38.9V30h1.3v7.7h3.1v1.2H57.8z"/>
	<path class="st0" d="M63.1,38.9V30h4.8v1.2h-3.5v2.6h3.5V35h-3.5v2.7h3.5v1.2H63.1z"/>
	<path class="st0" d="M73.6,35.4c-0.3,0.1-0.6,0.2-0.9,0.2l2.5,3.3h-1.6l-2.9-4.1h0v4.1h-1.3V30h2.7c0.8,0,1.7,0.1,2.4,0.7
		c0.6,0.5,0.8,1.3,0.8,2.1C75.3,34.1,74.8,35,73.6,35.4z M72,31.2h-1.4v3.4h0.9c1.2,0,2.4-0.3,2.4-1.7C74,31.7,73.1,31.2,72,31.2z"
		/>
	<path class="st0" d="M79,31.2v7.7h-1.3v-7.7H76V30h4.7v1.2H79z"/>
	<path class="st0" d="M81.6,33.7v-1.5h1.2v1.5H81.6z M81.6,38.9v-1.5h1.2v1.5H81.6z"/>
	<path class="st0" d="M96.6,38.9v-7.5h0l-3,7.5h-0.8l-3-7.5h0v7.5h-1.3V30h2l2.7,6.8l2.7-6.8h2v8.9H96.6z"/>
	<path class="st0" d="M104,39.1c-2.5,0-4.6-2.1-4.6-4.6c0-2.6,2.1-4.6,4.6-4.6c2.6,0,4.6,2.1,4.6,4.6C108.6,37,106.5,39.1,104,39.1z
		 M104,31c-1.4,0-2.5,0.7-3,2c-0.2,0.4-0.3,0.9-0.3,1.4c0,0.5,0.1,1,0.3,1.4c0.6,1.2,1.6,2,3,2c1.5,0,2.6-0.8,3.1-2.2
		c0.1-0.4,0.2-0.8,0.2-1.2C107.3,32.6,105.9,31,104,31z"/>
	<path class="st0" d="M116.2,37.6c-1,1-2.1,1.3-3.5,1.3h-2.8V30h2.9c1.4,0,2.8,0.4,3.6,1.6c0.6,0.8,0.9,1.8,0.9,2.8
		C117.3,35.5,116.9,36.9,116.2,37.6z M115.8,33.1c-0.5-1.3-1.6-1.9-3-1.9h-1.6v6.5h1.5c2,0,3.3-1.2,3.3-3.2
		C116,34,115.9,33.6,115.8,33.1z"/>
	<path class="st0" d="M118.8,38.9V30h4.8v1.2h-3.5v2.6h3.5V35h-3.5v2.7h3.5v1.2H118.8z"/>
	<path class="st0" d="M129.3,35.4c-0.3,0.1-0.6,0.2-0.9,0.2l2.5,3.3h-1.6l-2.9-4.1h0v4.1h-1.3V30h2.7c0.8,0,1.7,0.1,2.4,0.7
		c0.6,0.5,0.8,1.3,0.8,2.1C131,34.1,130.5,35,129.3,35.4z M127.8,31.2h-1.4v3.4h0.9c1.2,0,2.4-0.3,2.4-1.7
		C129.7,31.7,128.8,31.2,127.8,31.2z"/>
	<path class="st0" d="M138.2,38.9l-1-2.6H134l-1,2.6h-1.4L135,30h1.2l3.4,8.9H138.2z M135.6,31.7L135.6,31.7l-1.2,3.4h2.3
		L135.6,31.7z"/>
	<path class="st0" d="M142.6,31.2v7.7h-1.3v-7.7h-1.7V30h4.7v1.2H142.6z"/>
	<path class="st0" d="M145.3,38.9V30h4.8v1.2h-3.5v2.6h3.5V35h-3.5v2.7h3.5v1.2H145.3z"/>
</g>
<g>
	<g>
		<linearGradient id="SVGID_1_" gradientUnits="userSpaceOnUse" x1="51.4871" y1="11.8733" x2="98.9811" y2="11.8733">
			<stop  offset="0" style="stop-color:#2B303F"/>
			<stop  offset="1" style="stop-color:#79CDD8"/>
		</linearGradient>
		<path class="st1" d="M99,23.7c0-7.1-3.2-13.5-8.2-17.9C86.7,2.2,81.2,0,75.2,0c-5.7,0-11,2-15.1,5.4c-5.3,4.4-8.7,11-8.7,18.3h4.2
			c0-6.1,2.8-11.5,7.1-15.1c3.4-2.8,7.7-4.5,12.5-4.5c5.1,0,9.8,2,13.3,5.2c3.9,3.6,6.3,8.7,6.3,14.4H99z"/>
	</g>
	<path class="st2" d="M74,9.4l-7.4-3.6l0.5,3.1c0.3,2.2,0.7,4.6,1.3,7.2c0.6,2.6,1.2,4.3,1.8,5.1c0.5,0.7,1.2,1.3,2.1,1.8
		c2.3,1.2,4.6,1,6.7-0.5c0.7-0.5,1.3-1.2,1.8-2.1c1.2-2.3,1-4.6-0.5-6.7C79.5,12.7,77.4,11.3,74,9.4z M79.3,16.5
		c0.4,1.8-0.1,3.2-1.6,4.3c-0.4,0.3-0.9,0.5-1.5,0.7c-1.8,0.4-3.2-0.1-4.3-1.6c-0.3-0.4-0.5-0.9-0.7-1.5c-0.4-1.8,0.1-3.2,1.6-4.3
		c0.4-0.3,0.9-0.5,1.5-0.7c1.8-0.4,3.2,0.1,4.3,1.6C78.9,15.4,79.1,15.9,79.3,16.5z"/>
</g>
</svg>
