<?xml version="1.0" encoding="utf-8"?>
<!-- Generator: Adobe Illustrator 18.1.0, SVG Export Plug-In . SVG Version: 6.00 Build 0)  -->
<svg version="1.1" id="Layer_1" xmlns="http://www.w3.org/2000/svg" xmlns:xlink="http://www.w3.org/1999/xlink" x="0px" y="0px"
	 viewBox="0 0 116 40" style="enable-background:new 0 0 116 40;" xml:space="preserve">
<style type="text/css">
	.st0{fill:#FFFFFF;}
	.st1{fill:url(#SVGID_1_);}
	.st2{fill:#F1F1F2;}
</style>
<g>
	<path class="st0" d="M2.9,39.2c-1.6,0-2.7-1.2-2.7-2.8h1.3C1.5,37.2,2,38,2.9,38c0.9,0,1.4-0.6,1.4-1.5c0-0.9-0.7-1.2-1.4-1.5
		c-1.4-0.5-2.5-0.9-2.5-2.7C0.4,31,1.5,30,2.9,30c1.5,0,2.5,1,2.5,2.5H4.1c0-0.8-0.5-1.3-1.2-1.3c-0.6,0-1.2,0.6-1.2,1.2
		c0,1.9,3.9,0.8,3.9,4.1C5.6,38.1,4.5,39.2,2.9,39.2z"/>
	<path class="st0" d="M9.5,35.5H8.2V39H6.9v-8.9h2.6c1.8,0,3.1,0.8,3.1,2.7C12.6,34.7,11.2,35.5,9.5,35.5z M9.5,31.3H8.2v3h1.3
		c1,0,1.8-0.4,1.8-1.5C11.3,31.7,10.5,31.3,9.5,31.3z"/>
	<path class="st0" d="M18.3,39.2c-2.5,0-4.6-2.1-4.6-4.6c0-2.6,2.1-4.6,4.6-4.6c2.6,0,4.6,2.1,4.6,4.6
		C22.9,37.1,20.8,39.2,18.3,39.2z M18.3,31.1c-1.4,0-2.5,0.7-3,2c-0.2,0.4-0.3,0.9-0.3,1.4c0,0.5,0.1,1,0.3,1.4c0.6,1.2,1.6,2,3,2
		c1.5,0,2.6-0.8,3.1-2.2c0.1-0.4,0.2-0.8,0.2-1.2C21.6,32.7,20.2,31.1,18.3,31.1z"/>
	<path class="st0" d="M24.5,39v-8.9h1.3V39H24.5z"/>
	<path class="st0" d="M27.8,39v-8.9h1.3v7.7h3.1V39H27.8z"/>
	<path class="st0" d="M33.2,39v-8.9H38v1.2h-3.5v2.6H38v1.2h-3.5v2.7H38V39H33.2z"/>
	<path class="st0" d="M43.9,35.5c-0.3,0.1-0.6,0.2-0.9,0.2l2.5,3.3h-1.6L41,34.9h0V39h-1.3v-8.9h2.7c0.8,0,1.7,0.1,2.4,0.7
		c0.6,0.5,0.8,1.3,0.8,2.1C45.6,34.2,45,35.1,43.9,35.5z M42.3,31.3h-1.4v3.4h0.9c1.2,0,2.4-0.3,2.4-1.7
		C44.3,31.8,43.3,31.3,42.3,31.3z"/>
	<path class="st0" d="M56.4,39l-1-2.6h-3.2l-1,2.6h-1.4l3.4-8.9h1.2l3.4,8.9H56.4z M53.8,31.8L53.8,31.8l-1.2,3.4H55L53.8,31.8z"/>
	<path class="st0" d="M59.1,39v-8.9h1.3v7.7h3.1V39H59.1z"/>
	<path class="st0" d="M64.5,39v-8.9h4.8v1.2h-3.5v2.6h3.5v1.2h-3.5v2.7h3.5V39H64.5z"/>
	<path class="st0" d="M75.2,35.5c-0.3,0.1-0.6,0.2-0.9,0.2l2.5,3.3h-1.6l-2.9-4.1h0V39h-1.3v-8.9h2.7c0.8,0,1.7,0.1,2.4,0.7
		c0.6,0.5,0.8,1.3,0.8,2.1C76.8,34.2,76.3,35.1,75.2,35.5z M73.6,31.3h-1.4v3.4h0.9c1.2,0,2.4-0.3,2.4-1.7
		C75.5,31.8,74.6,31.3,73.6,31.3z"/>
	<path class="st0" d="M80.7,31.3V39h-1.3v-7.7h-1.7v-1.2h4.7v1.2H80.7z"/>
	<path class="st0" d="M83.4,33.8v-1.5h1.2v1.5H83.4z M83.4,39v-1.5h1.2V39H83.4z"/>
	<path class="st0" d="M90.6,39v-8.9h1.3v7.7H95V39H90.6z"/>
	<path class="st0" d="M100.3,39.2c-2.5,0-4.6-2.1-4.6-4.6c0-2.6,2.1-4.6,4.6-4.6c2.6,0,4.6,2.1,4.6,4.6
		C104.9,37.1,102.8,39.2,100.3,39.2z M100.3,31.1c-1.4,0-2.5,0.7-3,2c-0.2,0.4-0.3,0.9-0.3,1.4c0,0.5,0.1,1,0.3,1.4
		c0.6,1.2,1.6,2,3,2c1.5,0,2.6-0.8,3.1-2.2c0.1-0.4,0.2-0.8,0.2-1.2C103.6,32.7,102.2,31.1,100.3,31.1z"/>
	<path class="st0" d="M113.4,39h-1.1l-1.6-6.2h0L109,39h-1.1l-2.5-8.9h1.3l1.7,6.7h0l1.7-6.7h0.9l1.7,6.6h0l1.7-6.6h1.3L113.4,39z"
		/>
</g>
<g>
	<g>
		<linearGradient id="SVGID_1_" gradientUnits="userSpaceOnUse" x1="34.1538" y1="11.9229" x2="81.8462" y2="11.9229">
			<stop  offset="0" style="stop-color:#2B303F"/>
			<stop  offset="1" style="stop-color:#79CDD8"/>
		</linearGradient>
		<path class="st1" d="M81.8,23.8c0-7.2-3.2-13.6-8.2-18C69.5,2.2,64,0,58,0c-5.8,0-11,2-15.2,5.5c-5.3,4.4-8.7,11-8.7,18.4h4.2
			c0-6.1,2.8-11.5,7.1-15.1c3.4-2.8,7.8-4.5,12.5-4.5c5.1,0,9.8,2,13.3,5.2c3.9,3.6,6.3,8.7,6.3,14.4H81.8z"/>
	</g>
	<path class="st2" d="M50.1,15.8l-5.9,5.7l3.1,0.6c2.2,0.5,4.6,0.9,7.2,1.2c2.6,0.3,4.5,0.4,5.4,0.1c0.8-0.3,1.6-0.7,2.4-1.3
		c1.9-1.8,2.5-4,1.8-6.5c-0.3-0.8-0.7-1.6-1.3-2.4c-1.8-1.9-4-2.5-6.5-1.8C55.1,11.8,53,13.3,50.1,15.8z M58.6,13.3
		c1.8,0.2,3,1.2,3.5,3c0.1,0.5,0.2,1.1,0.1,1.7c-0.2,1.8-1.2,3-3,3.5c-0.5,0.1-1.1,0.2-1.7,0.1c-1.8-0.2-3-1.2-3.5-3
		C54,18,54,17.5,54,16.9c0.2-1.8,1.2-3,3-3.5C57.5,13.3,58.1,13.2,58.6,13.3z"/>
</g>
</svg>
