<?xml version="1.0" encoding="utf-8"?>
<!-- Generator: Adobe Illustrator 16.0.0, SVG Export Plug-In . SVG Version: 6.00 Build 0)  -->
<!DOCTYPE svg PUBLIC "-//W3C//DTD SVG 1.1//EN" "http://www.w3.org/Graphics/SVG/1.1/DTD/svg11.dtd">
<svg version="1.1" id="Layer_1" xmlns="http://www.w3.org/2000/svg" xmlns:xlink="http://www.w3.org/1999/xlink" x="0px" y="0px"
	 width="24px" height="22px" viewBox="0 0 24 22" enable-background="new 0 0 24 22" xml:space="preserve">
<path fill="#FFFFFF" d="M13.726,8.669c0.481-0.566,1.211-6.421-3.407-8.042c-5.39-1.891-8.226,1.701-8.226,1.701
	c-3.214,5.957,0.473,8.476,0.473,8.476c2.268,3.274,6.712,2.114,6.712,2.114l1.891,1.607h2.742v2.457l2.458,0.096v2.269l2.364,0.094
	l-0.096,2.091h4.445v-3.413L13.726,8.669z M5.033,5.903c-2.182,0-2.182-3.385,0-3.385C7.216,2.518,7.216,5.903,5.033,5.903z"/>
<path fill="#FFFFFF" d="M7.247,0.072c-3.892,0-7.046,2.879-7.046,6.431c0,3.552,3.154,6.431,7.046,6.431
	c3.891,0,7.046-2.879,7.046-6.431C14.293,2.952,11.138,0.072,7.247,0.072z M5.033,5.903c-2.182,0-2.182-3.385,0-3.385
	C7.216,2.518,7.216,5.903,5.033,5.903z"/>
</svg>
