<?xml version="1.0" encoding="utf-8"?>
<!-- Generator: Adobe Illustrator 16.0.0, SVG Export Plug-In . SVG Version: 6.00 Build 0)  -->
<!DOCTYPE svg PUBLIC "-//W3C//DTD SVG 1.1//EN" "http://www.w3.org/Graphics/SVG/1.1/DTD/svg11.dtd">
<svg version="1.1" id="Layer_1" xmlns="http://www.w3.org/2000/svg" xmlns:xlink="http://www.w3.org/1999/xlink" x="0px" y="0px"
	 width="60px" height="60px" viewBox="0 0 60 60" enable-background="new 0 0 60 60" xml:space="preserve">
<path d="M30.09,2.031C15.2,2.241,3.502,14.314,3.502,29.003c0,14.688,11.698,27.173,26.588,27.911
	c15.421,0.763,28.338-11.289,28.338-26.941C58.429,14.317,45.512,1.811,30.09,2.031z M48.911,33.23l-2.212-2.424l-2.725,2.517
	l-2.519-2.519l-2.832,2.619l-2.726-2.725l-3.04,3.041l-3.399,0.277c-1.861,3.683-5.669,6.215-10.077,6.215
	c-6.237,0-11.293-5.057-11.293-11.295c0-6.236,5.057-11.293,11.293-11.293c4.627,0,8.599,2.787,10.344,6.769h18.781h1.55
	l3.785,3.887L48.911,33.23z"/>
<path d="M17.024,28.769c0,1.486-1.24,2.683-2.763,2.676c-1.518-0.008-2.744-1.21-2.744-2.685s1.226-2.672,2.744-2.674
	C15.784,26.082,17.024,27.284,17.024,28.769z"/>
</svg>
