<?xml version="1.0" standalone="no"?>
<!DOCTYPE svg PUBLIC "-//W3C//DTD SVG 20010904//EN"
 "http://www.w3.org/TR/2001/REC-SVG-20010904/DTD/svg10.dtd">
<svg version="1.0" xmlns="http://www.w3.org/2000/svg"
 width="64.000000pt" height="64.000000pt" viewBox="0 0 64.000000 64.000000"
 preserveAspectRatio="xMidYMid meet">
<metadata>
Created by potrace 1.11, written by Peter Selinger 2001-2013
</metadata>
<g transform="translate(0.000000,64.000000) scale(0.100000,-0.100000)"
fill="#000000" stroke="none">
<path d="M200 618 c-198 -76 -264 -343 -125 -506 33 -37 102 -89 109 -81 12
15 53 252 49 286 -4 35 -1 46 21 67 29 30 35 31 61 12 18 -13 19 -18 6 -73
-25 -111 -25 -110 4 -129 24 -16 29 -16 59 -1 40 19 66 69 72 140 6 62 -8 92
-55 124 -114 77 -278 -49 -226 -173 15 -36 12 -74 -5 -74 -4 0 -20 14 -34 31
-36 43 -37 124 -1 185 62 105 223 135 328 62 78 -55 90 -197 24 -292 -41 -59
-143 -81 -188 -40 -15 14 -17 11 -28 -32 -7 -26 -19 -60 -27 -77 -21 -39 -9
-47 73 -47 179 0 323 142 323 320 0 225 -227 379 -440 298z"/>
</g>
</svg>
