<?xml version="1.0" standalone="no"?>
<!DOCTYPE svg PUBLIC "-//W3C//DTD SVG 20010904//EN"
 "http://www.w3.org/TR/2001/REC-SVG-20010904/DTD/svg10.dtd">
<svg version="1.0" xmlns="http://www.w3.org/2000/svg"
 width="64.000000pt" height="64.000000pt" viewBox="0 0 64.000000 64.000000"
 preserveAspectRatio="xMidYMid meet">
<metadata>
Created by potrace 1.11, written by Peter Selinger 2001-2013
</metadata>
<g transform="translate(0.000000,64.000000) scale(0.100000,-0.100000)"
fill="#000000" stroke="none">
<path d="M200 618 c-74 -29 -150 -105 -178 -181 -99 -262 153 -514 415 -415
77 29 152 104 181 181 99 263 -156 515 -418 415z m120 -143 l0 -45 45 0 c45 0
45 0 45 -35 0 -35 0 -35 -45 -35 l-45 0 0 -75 c0 -67 2 -76 23 -90 17 -11 31
-12 55 -6 31 9 32 8 32 -19 0 -26 -5 -31 -41 -40 -48 -13 -88 -6 -124 21 -24
19 -25 26 -25 115 l0 94 -30 0 c-27 0 -30 3 -30 30 0 18 5 30 13 30 18 0 53
39 66 73 8 19 17 27 36 27 23 0 25 -4 25 -45z"/>
</g>
</svg>
