<?xml version="1.0" encoding="utf-8"?>
<!-- Generator: Adobe Illustrator 18.1.0, SVG Export Plug-In . SVG Version: 6.00 Build 0)  -->
<svg version="1.1" id="Layer_1" xmlns="http://www.w3.org/2000/svg" xmlns:xlink="http://www.w3.org/1999/xlink" x="0px" y="0px"
	 viewBox="0 0 60 26" style="enable-background:new 0 0 60 26;" xml:space="preserve">
<style type="text/css">
	.st0{fill:#FFFFFF;}
</style>
<path class="st0" d="M24.4,15.2c-0.3-0.1-0.7-0.3-1-0.4c-0.6-0.3-1.2-0.7-1.8-1.1c-1-0.8-1.7-1.9-2.1-3.1C19,9.3,18.9,7.9,19,6.6
	c0.1-1.4,0.5-2.8,1.2-4c0.5-1,1.3-1.8,2.1-2.5c-1.6,0-7.4,0-7.4,0s0,7.8,0,10.9v2.3c0,0.7,0,1.4-0.1,2.2c-0.2,1.3-0.6,2.8-1.8,3.4
	c-0.6,0.3-1.3,0.4-1.9,0.4c-0.7,0-1.3-0.2-1.9-0.6c-1.1-0.8-1.4-2.3-1.5-3.5c-0.1-0.7-0.1-1.4-0.1-2.1v-2.3V0.1L0,0.1
	c0,0,0,10.4,0,13.5c0,1.5,0,3,0.3,4.5c0.3,1.3,0.8,2.6,1.5,3.7c0.7,1.1,1.7,2,2.8,2.6c1.2,0.7,2.6,1.1,3.9,1.3
	c1.4,0.2,2.8,0.2,4.2,0.1c1.3-0.1,2.7-0.4,3.9-0.9c1.2-0.5,2.2-1.2,3.1-2.1c0.8-0.9,1.4-2,1.8-3.1c0-0.1,0.1-0.2,0.1-0.3
	c0.9,0.9,1.9,1.7,3,2.3c1.1,0.6,2.4,0.9,3.7,0.7c0.6-0.1,1.2-0.4,1.7-0.8c0.4-0.4,0.7-1,0.8-1.6c0.1-0.6,0-1.2-0.2-1.7
	c-0.2-0.5-0.6-0.9-1-1.2c-0.6-0.4-1.4-0.7-2.1-0.9c-0.8-0.3-2-0.6-2.3-0.7C25.1,15.4,24.5,15.2,24.4,15.2 M46.8,19.3
	c-1.1,0-2.2-0.5-3.1-1.2c-0.9-0.8-1.5-1.9-1.9-3.1c-0.7-2.4-0.1-5.2,1.7-6.9c0.8-0.8,1.9-1.3,3.1-1.4c1.2,0,2.4,0.4,3.3,1.2
	c1.6,1.3,2.3,3.5,2.2,5.5c-0.1,2-1.1,4.1-2.8,5.2C48.5,19,47.6,19.3,46.8,19.3 M51.7,2.5c-1.6-1.5-3.8-2.4-6-2.5
	c-2.2-0.1-4.5,0.6-6.3,1.9c-1.6,1.1-2.8,2.7-3.7,4.4c-1-0.9-2.1-1.8-3.4-2.3c-1.2-0.5-2.7-0.7-3.9-0.2c-0.6,0.2-1,0.7-1.3,1.2
	c-0.3,0.5-0.4,1.2-0.4,1.8c0.1,0.6,0.3,1.1,0.8,1.6c0.5,0.4,1,0.7,1.6,1c0.7,0.3,1.4,0.5,2,0.7c0.7,0.2,1.3,0.4,1.9,0.6
	c1.2,0.5,2.5,1.1,3.4,2c1.9,1.9,2.5,4.7,2.2,7.3c-0.1,0.7-0.3,1.5-0.5,2.1c-0.1,0.2-0.1,0.3-0.2,0.5c0,0-0.1,0.1-0.1,0.1
	s0.2,0.2,0.2,0.2c0.2,0.2,0.4,0.4,0.7,0.6c0.9,0.7,1.9,1.3,2.9,1.7c2.1,0.8,4.5,0.9,6.7,0.2c1.2-0.4,2.3-1.1,3.2-2v2.1H59l0-25.2
	l-7.3,0V2.5z"/>
</svg>
