<?xml version="1.0" encoding="utf-8"?>
<!-- Generator: Adobe Illustrator 18.1.0, SVG Export Plug-In . SVG Version: 6.00 Build 0)  -->
<svg version="1.1" id="Layer_1" xmlns="http://www.w3.org/2000/svg" xmlns:xlink="http://www.w3.org/1999/xlink" x="0px" y="0px"
	 viewBox="0 0 234 34" style="enable-background:new 0 0 234 34;" xml:space="preserve">
<style type="text/css">
	.st0{fill:#FFFFFF;}
</style>
<g>
	<g>
		<path class="st0" d="M26.7,15.6h11v1h-5v15.1h-1.1V16.6h-5V15.6z"/>
		<path class="st0" d="M48.9,23.8H41v7.9H40V15.6H41v7.2h7.8v-7.2h1.1v16.2h-1.1V23.8z"/>
		<path class="st0" d="M53.3,15.6h8.8v1h-7.7v6.2h7v1h-7v6.9h7.8v1h-8.9V15.6z"/>
		<path class="st0" d="M66.1,15.6h8.2c1.4,0,2.5,1.1,2.5,2.5v3.7c0,0.6-0.5,1.3-1.2,1.6c0.6,0.1,1.3,0.7,1.3,1.6v4.2
			c0,1.4-1.1,2.5-2.5,2.5h-8.3V15.6z M73.1,22.1c0.1,0,0.2-0.1,0.2-0.2V19c0-0.1-0.1-0.3-0.3-0.3h-3.5v3.4H73.1z M69.6,28.6h3.6
			c0.1,0,0.2-0.1,0.2-0.2v-3.1c0-0.1-0.1-0.2-0.3-0.2h-3.6V28.6z"/>
		<path class="st0" d="M88,31.8h-5.9c-1.5,0-2.6-1.2-2.6-2.7V18.3c0-1.5,1.2-2.7,2.6-2.7H88c1.5,0,2.6,1.2,2.6,2.7v10.8
			C90.6,30.6,89.5,31.8,88,31.8z M86.9,18.8h-3.7c-0.1,0-0.2,0.1-0.2,0.2v9.3c0,0.1,0.1,0.2,0.2,0.2h3.7c0.1,0,0.2-0.1,0.2-0.2V19
			C87.2,18.9,87.1,18.8,86.9,18.8z"/>
		<path class="st0" d="M93.4,15.6h3.5v13h6.3v3.2h-9.8V15.6z"/>
		<path class="st0" d="M113.7,15.6c1.5,0,2.6,1.2,2.6,2.7v10.8c0,1.5-1.2,2.7-2.6,2.7h-8.2V15.6H113.7z M108.9,18.8v9.8h3.7
			c0.1,0,0.2-0.1,0.2-0.2V19c0-0.1-0.1-0.2-0.2-0.2H108.9z"/>
		<path class="st0" d="M125.9,16.6h-3.2c-1.1,0-1.7,0.6-1.7,1.8V20h-1v-1.7c0-1.7,1.1-2.7,2.7-2.7h3.4c1.6,0,2.7,1.1,2.7,2.7v3
			c0,1.4-0.6,1.9-2.2,2.5c-1.5,0.5-2.2,0.8-3.7,1.4c-1.2,0.4-1.7,0.8-1.7,1.8v3.8h7.7v1H120v-5c0-1.5,1-2.1,2.4-2.6
			c1.5-0.6,2.2-0.8,3.6-1.3c1.4-0.5,1.6-0.7,1.6-1.8v-2.8C127.7,17.2,127.1,16.6,125.9,16.6z"/>
		<path class="st0" d="M140.7,29c0,1.7-1.1,2.7-2.7,2.7h-3.8c-1.6,0-2.7-1.1-2.7-2.7V18.3c0-1.7,1.1-2.7,2.7-2.7h3.8
			c1.6,0,2.7,1.1,2.7,2.7V29z M137.9,16.6h-3.5c-1.1,0-1.7,0.6-1.7,1.8V29c0,1.2,0.6,1.8,1.7,1.8h3.5c1.1,0,1.7-0.6,1.7-1.8V18.4
			C139.7,17.2,139.1,16.6,137.9,16.6z"/>
		<path class="st0" d="M148.3,15.6v16.2h-1.1V16.7l-4.6,1.6v-1.1l4.6-1.6H148.3z"/>
		<path class="st0" d="M152.1,25.6v-10h8.3v1h-7.3v6.3c0.4-0.3,1-0.5,1.6-0.6c0.8-0.2,2.1-0.5,3.3-0.5c1.6,0,2.7,1.1,2.7,2.7V29
			c0,1.7-1.1,2.7-2.7,2.7h-3.4c-1.6,0-2.7-1.1-2.7-2.7v-0.7h1V29c0,1.2,0.6,1.8,1.7,1.8h3.2c1.1,0,1.7-0.6,1.7-1.8v-4.3
			c0-1.2-0.6-1.8-1.7-1.8c-1,0-2.3,0.3-3.1,0.5c-1.1,0.3-1.7,0.6-1.7,1.8v0.5H152.1z"/>
	</g>
	<g>
		<g>
			<path class="st0" d="M175.2,26.3v2.8c0,1.5-1.2,2.7-2.7,2.7H167c-1.5,0-2.7-1.2-2.7-2.7V18.3c0-1.5,1.2-2.7,2.7-2.7h5.6
				c1.5,0,2.7,1.2,2.7,2.7v2.4l-3.5,0.6V19c0-0.1-0.1-0.2-0.2-0.2H168c-0.1,0-0.2,0.1-0.2,0.2v9.3c0,0.1,0.1,0.2,0.2,0.2h3.5
				c0.1,0,0.2-0.1,0.2-0.2v-2.6L175.2,26.3z"/>
			<path class="st0" d="M190.1,31.8h-3.6l-1-3.2h-5l-1,3.2h-3.6l5.3-16.2h3.6L190.1,31.8z M181.5,25.5h2.9l-1.5-5.4L181.5,25.5z"/>
			<path class="st0" d="M194.9,23.3v8.5h-3.4V15.6h3.4l4.1,9.7l4.1-9.7h3.4v16.2H203v-8.5l-2.6,6h-3L194.9,23.3z"/>
			<path class="st0" d="M214.7,25.8h-2.4v6h-3.5V15.6h9c1.5,0,2.7,1.2,2.7,2.7v4.9c0,1.2-0.8,2.2-1.9,2.6l2.9,6.1h-3.9L214.7,25.8z
				 M212.3,18.8v3.8h4.4c0.1,0,0.2-0.1,0.2-0.2V19c0-0.1-0.1-0.2-0.2-0.2H212.3z"/>
			<path class="st0" d="M227.6,22.4l2.7-6.8h3.7l-4.7,10.8v5.4h-3.6v-5.4l-4.7-10.8h3.7L227.6,22.4z"/>
		</g>
	</g>
</g>
<g>
	<path class="st0" d="M27.4,8.1v-6h2.4c1.2,0,1.9,0.8,1.9,1.8S31,5.7,29.8,5.7h-1.7v2.4H27.4z M30.9,3.9c0-0.7-0.5-1.1-1.2-1.1h-1.6
		V5h1.6C30.4,5,30.9,4.6,30.9,3.9z"/>
	<path class="st0" d="M36.1,8.1l-1.5-2.4h-1.2v2.4h-0.7v-6h2.4c1.1,0,1.9,0.7,1.9,1.8c0,1.1-0.7,1.7-1.6,1.7L37,8.1H36.1z M36.2,3.9
		c0-0.7-0.5-1.1-1.2-1.1h-1.6v2.3H35C35.7,5.1,36.2,4.6,36.2,3.9z"/>
	<path class="st0" d="M38.1,8.1v-6h3.9v0.7h-3.2v1.9H42v0.7h-3.1v2.1h3.2v0.7H38.1z"/>
	<path class="st0" d="M42.9,7.2l0.5-0.6c0.4,0.5,1,0.9,1.9,0.9c1.1,0,1.4-0.6,1.4-1c0-1.5-3.6-0.7-3.6-2.8c0-1,0.9-1.7,2.1-1.7
		c0.9,0,1.6,0.3,2.1,0.8l-0.5,0.5c-0.5-0.5-1.1-0.7-1.7-0.7c-0.7,0-1.2,0.4-1.2,1c0,1.4,3.6,0.6,3.6,2.8c0,0.9-0.6,1.8-2.2,1.8
		C44.2,8.2,43.4,7.8,42.9,7.2z"/>
	<path class="st0" d="M48.5,8.1v-6h3.9v0.7h-3.2v1.9h3.1v0.7h-3.1v2.1h3.2v0.7H48.5z"/>
	<path class="st0" d="M57.9,8.1l-3.5-4.8v4.8h-0.7v-6h0.8l3.5,4.7V2.1h0.7v6H57.9z"/>
	<path class="st0" d="M61.5,8.1V2.8h-1.9V2.1h4.6v0.7h-1.9v5.3H61.5z"/>
	<path class="st0" d="M65.1,8.1v-6h3.9v0.7h-3.2v1.9H69v0.7h-3.1v2.1h3.2v0.7H65.1z"/>
	<path class="st0" d="M70.3,8.1v-6h2.1c1.9,0,3.1,1.3,3.1,3c0,1.7-1.2,3-3.1,3H70.3z M74.6,5.1c0-1.3-0.8-2.3-2.3-2.3H71v4.7h1.3
		C73.8,7.4,74.6,6.4,74.6,5.1z"/>
	<path class="st0" d="M78.9,8.1v-6h2.7c1,0,1.7,0.6,1.7,1.5c0,0.8-0.5,1.3-1.1,1.4c0.6,0.1,1.2,0.8,1.2,1.5c0,1-0.6,1.6-1.7,1.6
		H78.9z M82.5,3.7c0-0.5-0.4-1-1-1h-1.8v1.9h1.8C82.1,4.7,82.5,4.3,82.5,3.7z M82.6,6.4c0-0.5-0.4-1-1.1-1h-1.8v2.1h1.8
		C82.2,7.4,82.6,7,82.6,6.4z"/>
	<path class="st0" d="M86,8.1V5.6l-2.4-3.5h0.9l1.9,2.8l1.9-2.8h0.9l-2.4,3.5v2.5H86z"/>
</g>
</svg>
